<svg xmlns="http://www.w3.org/2000/svg" viewBox="0 0 75.6 81.97"><defs><style>.a{fill:#d8bb73}</style></defs><title>H_</title><path class="a" d="M3.65 20.16A28.15 28.15 0 0 1 6.88 14C15.68 1.45 35.65 2 49.4 1.49 55.08 1.3 72.82 5.72 73.65 12a6.05 6.05 0 0 1-.65 3.85 7.12 7.12 0 0 1-4.13 2.85c-3.51 1.2-20 1.93-23.46 2.32 5.35 1.85 12.72.4 18.08 2.25 3.4 1.17 7.35 3.36 6.77 7.81-.6 4.63-6.87 9.13-10.71 8.9s-7.84-1.34-11.8-.75c5.58.42 11.44 1.06 16.27 3.53 3.59 1.83 8.34 3.53 7.41 8.54-1.05 5.66-7.25 8.91-12 8.86s-9.18-2-14-.75C51.74 57.8 64.76 64.19 64 71.52c-1.6 14.67-30.85 7.72-38.57 3-12.69-7.79-21.89-21.35-23.7-36.16a38.37 38.37 0 0 1 1.92-18.2z"/><path d="M5.1 20.56C9.79 9.27 20.14 5.31 31.56 4c8-.93 16.88-1.82 24.82-.08A40.13 40.13 0 0 1 68.1 8.08c1.46.86 3.39 2 4 3.71 1.14 3.43-2.38 5.19-5 5.81-7 1.63-14.52 1.2-21.63 1.92a1.51 1.51 0 0 0-.4 2.95c6.65 1.92 17.09-.85 22.16 4.64 4.28 4.65-1.94 10.63-6.78 11.27-4.13.54-8.41-1-12.64-.65a1.5 1.5 0 0 0 0 3c5.57.44 26.69 2.92 21.14 12.72-5 8.82-16 3.09-23.88 4.51l.8 2.89C54 59.28 70.17 71 58.31 77.2c-6.9 3.58-16.89 1.37-23.92-.68C11.95 70-2.72 42.79 5.1 20.56c.64-1.82-2.26-2.61-2.89-.8C-5.28 41 7 68.52 27.9 77.41 36.66 81.15 65.31 88 65.47 71c.09-8.93-12.94-14.48-20.47-13-1.9.37-1.09 3.23.8 2.89 6.42-1.16 12.71 2.21 19-.27 4.12-1.62 7.89-5.31 8.2-9.96.64-10.49-18.3-12.37-25.24-12.92v3c5.67-.52 11.61 2.15 16.91-.63 3.55-1.87 7.06-5.49 7.12-9.72.16-11.9-19.11-8.83-26-10.8l-.4 2.95c4.88-.5 9.8-.67 14.69-1.1 4.1-.36 9.56-.32 12.83-3.23C81.35 10.7 67.7 4.11 62.1 2.33 51.84-.93 40.78-.22 30.23 1.15c-12.55 1.63-23 6.42-28 18.61-.77 1.78 2.14 2.56 2.87.8z"/></svg>