<svg xmlns="http://www.w3.org/2000/svg" viewBox="0 0 99.31 81.27"><defs><style>.a{fill:#fff}</style></defs><title>H</title><path class="a" d="M18.58 16c17.58-11.44 40-13.83 57-14.52C81.3 1.27 88.15 2.3 89 8.63a6.05 6.05 0 0 1-.65 3.81 7.12 7.12 0 0 1-4.13 2.85 50 50 0 0 1-10.54 2.4l16.06 5.53c3.4 1.17 7.35 3.35 6.77 7.8-.6 4.63-5.79 7.45-9.63 7.22s-7.3-2.18-11.26-1.58A41.27 41.27 0 0 1 91.34 41c3.59 1.83 7.27 5.21 6.34 10.22-1 5.66-7.24 8.92-12 8.87s-9.19-2-14-.74C78 57.76 91 64.14 90.23 71.48 88.7 85.71 61 77.15 52.88 77.05 46 77 39 77.37 32.37 75.39c-6.1-1.83-11.43-5.59-16.31-9.67-5.29-4.42-10.33-9.49-12.92-15.87C-2.59 35.66 7.35 23.32 18.58 16z"/><path d="M19.34 17.31C32 9.33 46.54 5.63 61.26 4c5.87-.64 12.2-1.53 18.1-1 3.7.35 9.74 2.72 8 7.74-1.36 4.26-10.24 5-13.7 5.46a1.51 1.51 0 0 0-.4 2.95L84 22.83c4.07 1.4 10.49 2.34 10.48 7.5 0 10.24-13.06 4.45-18.86 4.84a1.5 1.5 0 0 0 0 3c6.61.62 27.83 5.65 18.79 16.53-5.89 7.09-15.5 1.85-23.12 3.23l.8 2.89c5.42-1 13.81 2.48 16.15 7.7 2.71 6.06-3.91 9-8.67 9.52-8.73.88-17.19-1.92-25.82-2.47s-17 .52-25-3.21a58.51 58.51 0 0 1-18.58-14.3c-5.75-6.53-9-15-6-23.48 2.65-7.38 8.77-13 15.12-17.27 1.6-1.07.1-3.67-1.51-2.59C7.35 21.73-2.43 33 .54 46.49 3.44 59.69 18.16 72 30.46 76.34c7.81 2.75 15.82 1.66 23.88 2.3 4.67.37 9.28 1.44 13.93 2 7.05.85 19.06 2.15 22.66-5.94 4.7-10.56-11.15-18.4-19.66-16.75-1.9.37-1.09 3.23.8 2.89 6.42-1.16 12.71 2.2 19-.28 4-1.58 7.45-4.91 8.13-9.3 1.8-11.7-15.31-15.31-23.6-16.09v3c5.53-.37 10.69 3 16.1.63 3.14-1.35 5.81-4.07 6.27-7.57.5-3.85-2-6.68-5.2-8.35-5.73-3-12.61-4.53-18.71-6.63l-.4 2.95c6.26-.83 18.07-2.08 16.77-11C89.35.8 81-.18 74.94 0 55.22.7 34.75 4 17.83 14.72c-1.63 1.03-.13 3.62 1.51 2.59z"/></svg>