<svg xmlns="http://www.w3.org/2000/svg" viewBox="0 0 75.55 193.18"><defs><style>.a{fill:#d8d0ba}.b{fill:#777}</style></defs><title>H</title><path class="a" d="M70 162c-12.5 3.19-44.24 3-57 4.64-4.42 22-5 17.76-3 25 16.23-3 46.3-6.5 62.68-8.43-1.19-3.79-2.09-21.34-2.68-21.21z"/><path d="M69.57 160.58c-18.38 4.45-38 2.3-56.64 4.58a1.55 1.55 0 0 0-1.45 1.1c-1.74 8.61-5.38 17.16-3 25.83a1.54 1.54 0 0 0 1.85 1c20.61-3.7 41.5-5.93 62.28-8.38a1.53 1.53 0 0 0 1.45-1.9c-1.19-4.61-1.25-9.62-1.7-14.34-.18-2 .16-6.43-1.64-7.8-1.54-1.17-3 1.44-1.51 2.59-1.16-.88-.27-.48-.34.49a14.05 14.05 0 0 0 .27 2.36c.23 2.2.41 4.4.62 6.61a70 70 0 0 0 1.41 10.89l1.45-1.9c-21.05 2.48-42.21 4.74-63.08 8.48l1.85 1c-2.2-8 1.39-16.28 3-24.24l-1.45 1.1c19-2.32 38.78-.17 57.44-4.69 1.86-.36 1.07-3.24-.81-2.78z"/><path class="b" d="M74 170.3c-10.49.33-54.15 7.37-60 7.14-3.35-.14-7.49 0-9.62 2.46-3.93-19-.51-38.48-1.45-57.83Q1.48 93.4 1.5 64.51c0-11.75.21-23.72 4.2-35.51C8.1 21.87 12 14.7 18.5 9.22S34.36.28 42.31 1.75c24.63 4.56 21.89 38.72 22.9 55.73 1.3 21.95 3.91 43.65 5.79 65.52 1 10.42 3.48 36.88 3 47.3z"/><path d="M74 168.8c-12.46.48-25 2.86-37.31 4.54-6.14.84-12.29 1.73-18.47 2.33-5.13.5-10.84-.65-14.91 3.17l2.51.66c-3-15.16-1.57-30.5-1.31-45.8.25-15.09-1-30.22-1.28-45.32-.3-14.7-1.14-29.8.68-44.38 1.76-14.29 7.26-29.45 20.34-37 9.75-5.6 22.52-5.81 30.2 3.27 5.61 6.63 7.33 16 8.17 24.37.74 7.32.67 14.67 1 22 .73 14.43 2.25 28.83 3.68 43.21 1.27 12.85 2.5 25.7 3.56 38.57.87 10.54 2 21.26 1.55 31.85-.08 1.93 2.92 1.93 3 0 .44-10.37-.64-20.86-1.49-31.18-1-12.45-2.2-24.89-3.43-37.32C69 86.37 67.27 70.9 66.6 55.41c-.37-8.52-.32-17-1.56-25.5-1.17-8-3.49-16.41-9.11-22.47C49.55.57 39.8-1.45 30.93 1 1.38 9.15-.09 44.52 0 69.49c.07 18.84 1.09 37.63 1.5 56.46.4 18.18-2.13 36.34 1.37 54.36a1.51 1.51 0 0 0 2.51.66c3.27-3.07 11.18-2.09 15.72-2.61 5.84-.67 11.65-1.48 17.47-2.28 11.7-1.6 23.56-3.82 35.38-4.28 1.93-.08 1.94-3.08.05-3z"/></svg>