<svg xmlns="http://www.w3.org/2000/svg" viewBox="0 0 244.54 126.11"><title>H</title><path d="M23.56 11.49C-3.54 7-4.9 99.75 16.57 116s134.83 4.44 184 1.07c63.92-4.39 40.71-82.07 25.25-105.6s-41.13 2.23-73.85 1.81-70.25 7.86-128.41-1.79z"/><path d="M24 10C8.62 7.86 3.71 29.22 1.91 40.32c-3.17 19.5-2.67 41.32 3.61 60.18 2.09 6.27 5.09 13.17 10.68 17.1s13.35 5.23 20.06 6.21c23.6 3.43 48 2.31 71.71 1.21 25.81-1.19 51.56-3.3 77.31-5.3 19.39-1.5 40.78-2 52.15-20.51 9.64-15.67 7.95-36.23 3.85-53.36a132.12 132.12 0 0 0-8.66-25c-3.43-7.31-7.62-15.59-15.45-19.02-10.4-4.57-22.73.51-32.77 3.69-7.63 2.42-15.34 4.76-23.31 5.75-6.56.82-13.21.44-19.81.66-29.24 1-58.11 4-87.4 1.75-10-.77-20-2-29.92-3.64-1.89-.31-2.7 2.58-.8 2.89 30.21 4.93 60.41 5.44 90.89 3.54 11.69-.73 23.39-1.68 35.11-1.69 13.76 0 26.18-3.27 39.22-7.39 10.52-3.33 23.77-8.06 32.87.85 5.39 5.28 8.7 13.45 11.43 20.35 6.42 16.23 10.71 34.81 8 52.29-1.31 8.55-4.61 16.91-10.81 23.1-7.43 7.43-17.85 10.62-28.1 11.51-21.83 1.9-43.72 3.45-65.58 4.91-24.51 1.63-49.13 3-73.7 2.37-9.76-.25-19.62-.73-29.24-2.47-6-1.07-12.9-2.43-17.36-6.86-5.43-5.38-7.82-13.76-9.51-21a131.8 131.8 0 0 1-3.18-29.3 122.17 122.17 0 0 1 2.93-28.76C7.7 27.77 10 19.73 15.5 15.22a9.7 9.7 0 0 1 7.66-2.28c1.84.27 2.7-2.62.84-2.94z"/></svg>