<svg xmlns="http://www.w3.org/2000/svg" viewBox="0 0 91.64 237.58"><defs><style>.a{fill:#777}</style></defs><title>H</title><path class="a" d="M85.3 197.35c8.26-33.29 4.06-67.79 2.19-102-1.65-30.08 8.27-22.57-4-63.29-4.59-15.19-50.1-57.9-74.64-5.21-2.93 6.15-6.78 75.31-7.29 103.3C1 158.66 3.42 252.83 60.21 233.51c14.51-4.94 21.4-21.28 25.09-36.16z"/><path d="M86.75 197.75c7.89-32.74 4.33-66.35 2.4-99.56a124.76 124.76 0 0 1 1.29-26.58 59.48 59.48 0 0 0-.51-20.4c-1.69-8.93-3.43-18.95-8.65-26.6A63.58 63.58 0 0 0 66.45 9.55C53.36-.12 35.86-4.5 22.06 6.35 15.55 11.48 8.93 20 6.86 28.12 5.28 34.32 5.05 41.07 4.5 47.4c-1.88 21.45-3 43-3.87 64.49-1.22 30.74-1.69 63.33 8.79 92.69 4.6 12.89 12.29 26.48 25.93 31.28 7.16 2.52 15 2 22.22 0 11-3 18.39-10.85 23.22-21a92.39 92.39 0 0 0 6-17.19c.48-1.87-2.42-2.67-2.89-.8-3 11.81-7.64 25.23-18.32 32.27-6.88 4.54-16.74 6.37-24.87 4.94-14.29-2.53-22.73-15.63-27.57-28.23C3 179.63 2.41 149.87 3.26 122c.6-19.69 1.65-39.38 3-59 .58-8.26 1.19-16.53 2.11-24.76.7-6.18 1.52-10.8 4.63-16.24 5-8.76 12.43-16.88 22.74-18.79 7.8-1.44 15.75.92 22.57 4.66a62.2 62.2 0 0 1 17.43 14.41c5.22 6.2 7.13 12.57 9.17 20.42 2.23 8.6 4 17.38 2.91 26.28-1 8-2.22 15.56-1.95 23.65 1.19 35 6.31 69.79-2 104.33-.47 1.87 2.43 2.67 2.88.79z"/></svg>