<svg xmlns="http://www.w3.org/2000/svg" viewBox="0 0 311.82 462.66"><defs><style>.a{fill:#d8bb73}.b{fill:#fff}</style></defs><title>H</title><path class="a" d="M296.77 276a31.31 31.31 0 0 1 1.2-9.23c4-13.74 4-23.08 2.65-37.32-.79-8.18-13 .41-13.74 5.31 3.89-15.38 9.83-35.26 9.62-51.12-.24-18.72-10.14-32.64-19.92-47.64-10.31-15.78-16.17-30.73-20.58-49.13-3.62-15.09-9.17-31.23-22.33-39.44-13.48-8.41-30.78-6-46.43-3.26-17 3-34.15 5.94-50.43 11.75S105 70.6 93.65 83.65c-3.3 3.8-6.22 7.92-9.13 12C69.41 117 47.91 139.79 42.11 166c-2.16 9.74-1.71 19.94-4.06 29.64-3.72 15.36-14.35 29.09-14.11 44.87-2.84-3.92-6-8.05-10.52-9.66-20.72-7.32-6.42 34.78-4.8 41.92 4 17.62-4.06 31.56-4.37 49.08-.25 15.85 4.23 32.23 15.91 43.49 9.17 8.84 21.44 13.53 32.38 20 13.14 7.83 20.08 19.61 28.8 32.18 8.47 12.21 19.26 25.46 31.36 34.09 13.65 9.74 31.64 10.06 48.41 10 26.2-.08 54.09-5.35 69.83-28.25C238.75 422 244.67 409 255.16 400c6-5.13 13.36-8.82 18.08-15.13s6.17-14.25 10.23-20.87c5.35-8.72 14.69-14.37 20.23-23 14.49-22.48-6.59-43-6.93-65z"/><path d="M24.21 243c-3.66-3.8-7.49-9.4-12-12.11a6.56 6.56 0 0 0-7.6.6c-4.73 3.49-5 9-4.24 14.28 2.06 13.86 8.86 26.35 12.43 39.78a1.5 1.5 0 0 0 2.89-.8c-2.62-9.85-7-19.21-9.88-29-1.4-4.72-3-9.84-2.84-14.81a10 10 0 0 1 .46-3 11.29 11.29 0 0 1 2.15-3.29l5.88-.53c1.67.57 3.9 4 5.13 5.28l5.54 5.74c1.34 1.39 3.46-.73 2.12-2.12z"/><path class="b" d="M265.19 244.1c-.92-3.63-3.16-15.07-6-18.11-4.7-2.1-9.36 1.76-13.95 4.09-9.11 4.62-14.2 5.43-26.41 11.09-1.66.77-3.75 1.09-4.55 2.73-.52 1.07-3.44 5-2.59 8.17 1.06 4-.32 5.85 4.55 6.59 12.48-1.36 25.22-.79 37.7-2.15 3.74-.41 7.86-1 10.29-3.88s1.88-4.9.96-8.53zM151.33 245.79c-.41-3.65-3.65-8.07-6.73-10.08-2.09-1.37-4.76-1.37-7.26-1.45a69.2 69.2 0 0 1-17.77-3c-5.07-1.54-10.17-1.52-15.45-2s-19.05 3.24-22.84 11.53c-.94 2-4 10.09-2.6 11.82a7.51 7.51 0 0 0 2.32 1.73c19.33 10.37 46 17.22 67.17 10.16 1-.32 3.52-3.51 3.69-4.79.47-3.54-.13-10.38-.53-13.92z"/><path d="M213.27 252.56c-.55-.19.47-3.59.75-4.49.91-2.93 2.06-3.74 4.54-4.91 2.31-1.09 4.56-2 6.8-3.31 5.43-3.15 11.63-4.47 17.38-7 3.22-1.42 7-3.92 10.41-4.45 3-.46 6.71 0 8.28 2.93a17 17 0 0 1 1.09 3.51c1.38 5.37 2.26 11.71.57 17.1-.58 1.85 2.32 2.64 2.89.8 2.21-7.07.89-16.53-2.08-23.21-4-9-12.66-3.75-19.37-.76-5.41 2.41-11.13 3.91-16.51 6.23a55.94 55.94 0 0 0-5.44 3c-2.43 1.38-5.35 1.68-7.68 3-3.32 1.86-7.5 12.69-2.44 14.47 1.83.64 2.61-2.26.8-2.89zM80.29 256.63c-.12-4.34-.19-9 1.4-13.1 1.8-4.68 5.76-7.37 10.13-9.46s9.29-3.76 14.08-3.51c5.42.28 11 2.18 16.31 3.27a111.65 111.65 0 0 0 14.1 2.17c5.34.39 10.12.94 11.85 6.87A44.63 44.63 0 0 1 150.1 260c-.18 1.92 2.82 1.91 3 0 .54-5.78.06-15.75-3.15-21.05a13.31 13.31 0 0 0-8.8-5.78c-3.71-.51-7.48-.34-11.22-.93-3.48-.55-6.94-1.28-10.38-2-5.46-1.17-11.2-3.13-16.84-2.53a39.11 39.11 0 0 0-14.3 4.76c-9.58 5.22-11.41 13.89-11.13 24.19.05 1.93 3.05 1.93 3 0zM135.95 285.07a64.14 64.14 0 0 0-4 6.34c-1.17 2.43-1.49 5.21-2.9 7.52-3.31 5.39-10 8.62-15.91 10.08s-12.1 1.42-18.17 1.07c-4.69-.27-9.57-.67-14.05 1-7.87 3-11 11.72-12 19.45-1.23 9.7 3.15 15.85 11.16 20.71 1.66 1 3.16-1.59 1.51-2.59-5.35-3.24-9.45-6.83-9.89-13.56a29.17 29.17 0 0 1 3-14.11c5.46-11 17.43-7.6 27.34-7.73 8.36-.11 17-1.77 23.8-6.84a21 21 0 0 0 6.66-7.54c1-2.14 1.35-4.51 2.43-6.64s2.4-3.81 3.6-5.69c1-1.63-1.55-3.14-2.59-1.51zM267.41 334.21c4 2.69 6.92-3.21 8-6.3a21.76 21.76 0 0 0-15-28.33c-6.72-1.8-23.2 1.7-26.34-6.14-.71-1.77-3.61-1-2.89.8 3.61 9 16.13 6.74 23.79 7.48 6.7.64 12.65 3.56 16.14 9.52a18.31 18.31 0 0 1 2.5 9.39c0 1.05-1.75 13-4.73 11-1.61-1.07-3.12 1.52-1.51 2.59z"/><path d="M64.57 202.73c6.89-9.29 14.86-18 20.13-28.39s5.71-21.62 8-32.83c2.83-13.94 10.87-23.46 23.77-29.39 11.29-5.19 23.88-6.8 36.14-7.86 13-1.12 26-2.3 39.06-3.26 13.55-1 28.42-1.8 41.47 2.67 6.55 2.24 11.93 6.14 15.24 12.35 3 5.65 4.37 12.2 6.06 18.33 3.66 13.26 7.6 26.47 10.82 39.84 3.35 13.87 3.6 27.94 5.72 42a101.78 101.78 0 0 0 13.23 37.91 1.51 1.51 0 0 0 2.8-.76 309.75 309.75 0 0 1 5.18-43.23c2.07-11.49 5.64-22.89 3.72-34.63-4.05-24.77-22.39-43.92-30-67.36-7.44-22.9 1.29-47.53-7.76-70.07-6.67-16.6-20.49-28.92-37.21-34.92-9.56-3.43-20.52-4.61-30.08-.53s-15.35 13-20.38 21.74c-1.54 2.69-3.1 5.51-5.64 7.38-3.94 2.91-8.25 1.62-12.38 0-6.05-2.41-11.93-5-18.4-6.14-8.89-1.55-18.61-.35-25.73 5.62-3.48 2.92-5.45 7-9.33 9.53-3.71 2.43-8 3.81-12 5.55-8.05 3.46-14.33 8.68-16.46 17.53-2.81 11.7-1.24 25.12-.73 37 .29 6.76.6 13.85-1.6 20.35s-6.63 12.22-10.82 17.65a81.67 81.67 0 0 0-15.57 31.77c-1.54 6.36-2.56 12.84-3.53 19.31-.84 5.66-1.16 11.79-2.94 17.26-3 9.14-9.92 16.86-11.65 26.46-1.94 10.81 7.8 18.86 11.41 28.12.5 1.27 2.52 1.57 2.89 0a165.47 165.47 0 0 1 26.62-59c1.13-1.57-1.47-3.06-2.59-1.51-13 17.91-21.78 38.22-26.92 59.68H38c-3.29-8.43-12.76-16.6-11.45-26.22 1.16-8.51 7.21-16.1 10.54-23.85 3.72-8.68 3.78-19 5.35-28.27 1.86-10.91 4.39-22 10-31.67 5.32-9.19 13.49-16.49 17.68-26.4 4.4-10.39 2.61-22.09 2.32-33C72.09 80.07 69.88 64 78.42 55c5.66-5.91 14.29-7.14 21.11-11.18a25.68 25.68 0 0 0 7.33-6.71 23.65 23.65 0 0 1 15.77-9c5.86-.85 11.75.17 17.37 1.89 5.82 1.79 11.38 5.36 17.42 6.27 9.76 1.47 13.69-7.46 17.88-14.48C181.78 11 190.82 3 204.1 3c19.74 0 39.29 13.24 48.51 30.3 10.86 20.1 4.6 42 7.59 63.51 3.69 26.6 23.71 46.71 31.08 72a47.15 47.15 0 0 1 1.66 21.48c-1.23 7-2.77 13.92-4 20.91a309.41 309.41 0 0 0-4.94 42.12l2.8-.76c-7.23-12-11.24-25-13.17-38.83-1.89-13.54-2.26-27-5.48-40.35-3.45-14.29-7.67-28.41-11.58-42.58-3-10.9-6.09-21.71-16.69-27.48-10.81-5.88-24.43-6.2-36.43-5.94-14.8.32-29.56 2.25-44.31 3.35-21.82 1.63-50.79 4-63.73 24.68-7.35 11.73-6.08 26.13-9.9 39-4.21 14.16-14.93 25.2-23.53 36.8-1.15 1.55 1.46 3.05 2.59 1.52z"/><path d="M282.77 231.64c.79 10.18 1.59 20.44 4 30.38 2.35 9.62 6.72 18.2 11.44 26.84 5.23 9.58 10.72 19.82 10.73 31 0 11.48-6.84 20.44-14 28.73A186.56 186.56 0 0 0 279.21 370a117.81 117.81 0 0 1-18.86 22.18c-7 6.61-13.36 13.47-18.52 21.6-4.67 7.36-8.82 15.08-14 22.12-6.24 8.51-14 15.45-24.21 18.73-9.67 3.11-20 3.24-30 3.45-10.58.22-21.14 1.51-31.71 1.56-11.41.05-21.73-2.92-30.94-9.73-16.11-11.91-25.2-30.31-37.59-45.56a89.31 89.31 0 0 0-21.8-19.24c-8.48-5.42-16.22-11.48-24.12-17.7-4.18-3.29-8.5-6.73-11.61-11.1-3.6-5-5.25-11.22-6.53-17.2a85 85 0 0 1-.52-35.27c2.56-12.06 8.75-21.65 16-31.42a260.4 260.4 0 0 1 8.58-11c1.95-2.39 2.24-5 2.43-8.06.12-1.93-2.89-1.92-3 0-.27 4.45-1.72 5.84-4.39 9-3.39 4.08-6.34 8.64-9.46 12.93-6.17 8.46-10.84 17.45-13 27.75A85.24 85.24 0 0 0 5 331.75c1.24 9.42 3.27 19.77 9.25 27.42 5.85 7.44 14.35 12.88 21.61 18.83 8.29 6.78 18.25 11.24 26.17 18.5 15.75 14.46 24.5 34.77 39.84 49.62 6.42 6.21 13.9 11.48 22.46 14.23 10.6 3.41 21.8 2.29 32.7 1.49 19.59-1.43 42.15 1.78 59.27-10 16.07-11.06 22.2-30.37 34.13-45 6.63-8.11 15.07-14.41 21.95-22.25 6.2-7.07 10.62-15.44 16-23.12 6.36-9.1 15.16-16.5 20.05-26.61 4.78-9.87 4.13-20.56.47-30.69-4.25-11.79-11.92-22-16.36-33.67-4.71-12.41-5.75-25.78-6.77-38.9-.15-1.91-3.15-1.93-3 0z"/><path d="M69.19 296.77c-9.53 6.5-18.25 15.25-21.34 26.69-2.72 10.09-.57 21.19 6.9 28.69a1.5 1.5 0 0 0 2.13-2.15c-7-7.07-8.79-17.81-5.73-27.16 3.29-10 11-17.7 19.55-23.52 1.59-1.08.09-3.68-1.51-2.59z"/><path d="M66.78 275.72c-16.52 12.6-30.88 29.86-32.47 51.38-.73 9.94 1.38 20.3 7 28.66 6.12 9.18 15.7 15 25.56 19.46 1.75.79 3.27-1.79 1.51-2.59-9.11-4.13-18.2-9.38-24.05-17.75-5.63-8.05-7.68-18.09-7-27.78 1.5-20.35 15.38-36.89 31-48.79 1.52-1.16 0-3.76-1.51-2.59zM138.59 419.29a83.5 83.5 0 0 0 64.89-5.06c1.72-.89.2-3.48-1.51-2.59a80.46 80.46 0 0 1-62.58 4.76c-1.83-.62-2.62 2.28-.8 2.89zM285.89 241.52a31.68 31.68 0 0 1 4.55-7.41c1.12-1.33 4.72-5.71 6.54-5.72 4.95 0 3.79 14.49 3.53 17.66-1 12.12-5.12 23.73-5.53 35.94-.06 1.93 2.94 1.93 3 0 .55-16.83 8.54-33.47 4.75-50.41-.82-3.67-2.45-8-6.87-6-5.64 2.5-10.11 9.06-12.56 14.42-.8 1.74 1.79 3.27 2.59 1.51zM250.39 288.71a73.44 73.44 0 0 1 17.53-.82c7 .66 11 3.52 14.59 9.43 7.4 12.07 6.82 27.38.2 39.74-6.8 12.71-19.93 19.3-30.31 28.64a127 127 0 0 0-26.17 33.21c-.93 1.69 1.66 3.21 2.59 1.51a125.68 125.68 0 0 1 34.48-39.8c12.17-9.19 22.95-18.4 26.43-34 2.83-12.68.41-26.12-8.36-36-7.43-8.38-21.93-6.26-31.78-4.81-1.9.28-1.09 3.17.8 2.89z"/><path d="M93.37 390.77c10.1 5 16.86 13.38 23.41 22.31 4.86 6.62 9 15.27 16.62 19.19 5.13 2.64 11.85 2.84 17.48 3.25 6.43.47 13.52 1 19.84-.57 1.87-.47 1.08-3.37-.8-2.89-6 1.53-12.9.92-19 .47-7-.51-14.68-.83-20.1-5.84-6.19-5.69-10.22-13.69-15.4-20.25-6-7.51-11.85-13.92-20.54-18.26-1.72-.86-3.24 1.73-1.51 2.59zM61.82 228.79a162.43 162.43 0 0 1 18-16 72.55 72.55 0 0 1 8.28-5.8c4.84-2.7 8.81-2.09 13.5.59 13.22 7.56 26.06 15.34 40 21.65 6.11 2.77 12.46 5.92 18.89 7.87 4.29 1.3 7.32 0 8-4.76 1.53-10-9.17-15.89-17.5-11.63-1.72.88-.2 3.47 1.51 2.59 4.11-2.1 9.47-1.3 11.92 3a8.34 8.34 0 0 1 1.06 5.47c-.55 2.55-2.17 2.66-4.23 2.47-2.63-.24-6-2.35-8.48-3.37q-4.88-2-9.69-4.2a322.34 322.34 0 0 1-32.31-16.93c-8.44-5.05-15.32-10.78-24.85-4.9s-18.37 13.82-26.24 21.9a1.5 1.5 0 0 0 2.12 2.12zM206.78 238.35a115.06 115.06 0 0 0 45.58-20.52c1.53-1.14 0-3.75-1.51-2.59A113.11 113.11 0 0 1 206 235.45c-1.89.39-1.09 3.29.8 2.89zM213.79 262.81c16.58 1 33.28.51 49.16-4.79a1.5 1.5 0 0 0-.8-2.89c-14.12 3.65-28.54 7.25-43.22 5.24-1.87-.26-2.72 2.56-.8 2.89a138.8 138.8 0 0 0 29.62 1.91l-.4-2.95c-10.31 1.53-20.61 2.9-30.95.85a1.52 1.52 0 0 0-1.69 2.2c2.27 4.08 6.67 5 11 5.81a81.66 81.66 0 0 0 19.57 1.08c1.92-.12 1.94-3.1 0-3a87.71 87.71 0 0 1-25.57-2.35c-1.88-.46-2.68 2.44-.8 2.89a90.46 90.46 0 0 0 26.37 2.46v-3a81 81 0 0 1-13.73-.24c-4.35-.47-11.78-.76-14.23-5.16l-1.69 2.2c10.87 2.15 21.7.76 32.54-.85 1.67-.25 1.27-3-.4-2.95a135 135 0 0 1-28.82-1.8l-.8 2.89c15.27 2.09 30.09-1.43 44.81-5.24l-.8-2.89c-15.65 5.22-32 5.69-48.37 4.68-1.93-.12-1.92 2.88 0 3zM84.68 264a121.05 121.05 0 0 0 68.47 5.27l-.8-2.89c-16.1 4.89-32.71 7.37-49.51 5.56-1.66-.18-2.07 2.71-.4 2.95a93.54 93.54 0 0 0 45.15-4.68l-1.16-2.74a107.28 107.28 0 0 1-36.36 8.8c-1.57.1-2.17 2.7-.4 2.95 14 1.9 26.82-3.38 39.21-9.26 1.74-.83.22-3.42-1.51-2.59-11.54 5.48-23.84 10.74-36.9 9l-.4 2.95a111.55 111.55 0 0 0 37.88-9.32c1.54-.68.44-3.32-1.16-2.74a90.47 90.47 0 0 1-43.55 4.74l-.4 2.95c17.05 1.83 34-.7 50.31-5.67a1.5 1.5 0 0 0-.8-2.89 118.18 118.18 0 0 1-66.87-5.27c-1.81-.69-2.59 2.21-.8 2.89z"/><path class="a" d="M143 303c-3.1-1.32-6.89.19-8.94 2.87s-2.61 6.23-2.43 9.6c.25 4.6 2.08 9.47 6.08 11.76 5.61 3.21 13 .21 19 2.75 5.35 2.29 7.69 8.32 12.73 11 12.21 6.38 34.69 3.69 40.23-10.3 1.23-3.11 3.67-19.18 4.67-22.4 3.46-11.11 9.91 2.24 17-1 3.62-1.63 4.87-6.23 4.59-10.19-.59-8.08-8-14.21-15.44-16.65-3.32-1.08-6.95-1.24-10.05-2.83-4.87-2.5-7.42-8-8.5-13.41s-1-10.95-2.48-16.23c-.89-3.24-2.33-6.32-3-9.6s-.54-7 1.49-9.64"/><path d="M143.43 301.51c-9.47-2.75-14.09 7.4-13.15 15.3 1.1 9.22 7.19 13.41 16.06 13.51 3.29 0 6.59-.29 9.7 1 2.76 1.18 4.57 3.31 6.54 5.48 2.78 3.06 5.48 5.35 9.38 6.79a37.94 37.94 0 0 0 22.83.65c6.9-1.93 13.76-6.27 16.34-13.27 2.32-6.29 2.68-13.44 4.09-20 .37-1.74.62-4.13 2.23-5.13 1.9-1.19 3.4.28 5.26 1.25 2.52 1.32 5.2 2.63 8.12 1.87 7.53-2 7.71-12.41 4.95-18.07a23.65 23.65 0 0 0-10.61-10.2c-6.08-3.12-14.1-2.37-18.37-8.39s-3.89-13.53-5-20.35c-1.12-7.09-6.93-15.69-2.6-22.55 1-1.64-1.56-3.14-2.59-1.51-5.11 8.11 1.17 17.23 2.39 25.57 1.17 8 1.18 17.24 7.62 23.19 2.89 2.67 6.35 3.41 10.06 4.29 5.84 1.4 11.49 4 15.07 9.07 2.82 4 4.66 12.33-.58 15.35-3.7 2.13-6.72-1.14-10.07-2.49-4.56-1.84-7.11 1-8.34 5.33-1.7 5.94-2.26 12.25-3.58 18.29-3.39 15.44-23.38 19.12-36.44 14.2-8.18-3.08-11-12.39-20.35-13.31-6-.59-13.35 1.37-17.17-4.79-3.58-5.77-3-21.24 7.4-18.22a1.5 1.5 0 0 0 .8-2.89zM92.51 137.52a162.67 162.67 0 0 0 5-52.67C97 78.12 97.07 69 92.92 63.24c-2.72-3.74-8-5.87-12.18-3.09-4.47 3-4.43 9.49-4.3 14.25a174.45 174.45 0 0 0 2.68 25.69A154.35 154.35 0 0 0 86 126.52c1.41 3.81 4.13 8.25 8.89 6.61 5.22-1.8 6.76-8.75 8-13.4a108.75 108.75 0 0 0 3.41-24.6 110.22 110.22 0 0 0-2.06-23.88 105.9 105.9 0 0 0-3.05-11.85c-.78-2.42-1.45-6.77-3.73-8.34-8.79-6-12.24 25.19-12.19 29.46a59 59 0 0 0 4.38 21.63c2 4.86 5.09 10.46 10.53 12 14.76 4.2 20.95-21.29 23.21-30.79a112.36 112.36 0 0 0-.62-54 1.52 1.52 0 0 0-1.85-1c-10.22 3.11-10.76 19.25-11.92 27.8-2.08 15.15-2.5 31-.2 46.12.59 3.86 1.88 8.66 5.57 10.72 3.85 2.15 7.75-.09 10.19-3.23 7.69-9.89 11.34-24.44 12.72-36.63a88 88 0 0 0-.4-22.7c-.83-5.61-1.92-12.3-7.64-14.9a1.53 1.53 0 0 0-2.05.54 80.68 80.68 0 0 0-10.21 45.16c.52 7.34 2.74 33.37 15.77 26.69 5.95-3 8.45-12.2 10.55-18a115.27 115.27 0 0 0 6-24.58 113.6 113.6 0 0 0 .36-26.66c-.59-4.69-1.44-9.76-6.36-11.69a1.5 1.5 0 0 0-1.69.69 81 81 0 0 0-10 42.28A78.78 78.78 0 0 0 135 90c1.52 4.93 3.61 11.25 9.6 11.87 12.52 1.29 16.86-19.25 18.76-27.92a95.07 95.07 0 0 0-1.43-45.79 1.51 1.51 0 0 0-2.89 0 106.16 106.16 0 0 0-7.48 44.15 94.94 94.94 0 0 0 3.31 21.58c1.06 3.69 2.93 8 7.35 8.3 4.9.34 8.21-4.78 9.92-8.66a88.51 88.51 0 0 0 6-20.76 101.78 101.78 0 0 0-2-42.94 1.52 1.52 0 0 0-2.51-.66c-5.28 4.93-7.52 11.58-9 18.48a132.2 132.2 0 0 0-2.86 27.15c0 4.84-.48 34.28 12.11 25.59 5.52-3.81 7.91-13 10-19a121.86 121.86 0 0 0 5.79-24.12 120.91 120.91 0 0 0 .8-25.19c-.3-4.06.16-12-5.39-12.5a1.53 1.53 0 0 0-1.45 1.1 102.74 102.74 0 0 0-7.92 45.23c.34 6.27 1 31.08 12.47 27.35 4.17-1.35 6.38-6.16 7.61-10a125.09 125.09 0 0 0 4.7-23.75 152.18 152.18 0 0 0-2.17-47.82c-.31-1.55-2.45-1.29-2.89 0a143.84 143.84 0 0 0-5.73 72.11c1.28 7.13 4.25 18.41 14.06 13.3 4.12-2.15 6.23-6.83 8-10.83a99.49 99.49 0 0 0 5.58-15.68 101.75 101.75 0 0 0 3-34.39 100.07 100.07 0 0 0-2.78-16.43c-.75-2.91-1.4-7.48-4.54-8.91-8.21-3.75-11.74 13.85-12.92 18.21a125.53 125.53 0 0 0-2.73 53c.67 4.14 1.25 9 3.94 12.43 5.5 7 13.68 2.1 17.7-3.71 6-8.66 8.46-20.64 9.51-30.93a86.2 86.2 0 0 0-3.41-34.3c-1.69-5.4-6-15.57-12.76-8.47-3.12 3.3-3.83 8.36-4.63 12.61a110.87 110.87 0 0 0 3 53c2.22 7.17 5.21 19 14.94 17.93 9.49-1 13-11.75 15.27-19.48a103.16 103.16 0 0 0 1.37-53c-.73-3-1.36-8.13-4.88-9.41-7.8-2.83-11.37 14.33-12.54 18.69A98.31 98.31 0 0 0 222 72.18c.74 7.79 1.43 20.89 8.42 26 7.71 5.68 14.1-5.51 16.52-11.32 4.3-10.42 5.06-22.73 4.34-33.86-.72-10.57-2.54-23.32-8.58-32.31-4.07-6.05-11.48-9.09-17.39-3.52-7.12 6.7-9.06 19.75-10.44 28.86a107.75 107.75 0 0 0 .4 34.95c1.46 8.27 3.73 19.17 11.84 23.61 8.57 4.68 18-1.58 23.42-8.19 13.74-16.85 11.09-41.89-.3-59.26-5.09-7.77-12-4.69-15.2 2.88-4.31 10.06-5.76 21.71-5 32.57A75.31 75.31 0 0 0 233 88.85c1.06 3.54 2.35 9.27 5.58 11.64 7.2 5.28 14.2-10.72 16.1-15.31a53.84 53.84 0 0 0 3.56-28.43c-.9-6-4-16.71-12.25-15.24-3.61.65-5.77 3.91-7.12 7-2.31 5.33-3.59 11.37-4.85 17a172.69 172.69 0 0 0-3 17.73c-.61 5.26-1.87 11.82-.88 17.08.52 2.75 2.06 5.39 5.18 5.31a4 4 0 0 0 4.14-4.26c-.15-1.91-3.15-1.93-3 0-.08-1-3.11-2.35-3.47-3.59a11.68 11.68 0 0 1 .12-3.48q.14-2.77.36-5.54.59-7.18 1.8-14.29c1.36-7.93 3.05-16.17 5.88-23.73.62-1.67 1.52-3.9 3-5.07 3.38-2.74 6.41-.54 8.21 2.26 2.16 3.35 2.79 7.59 3.2 11.47a50.87 50.87 0 0 1-7.34 31.78 25.28 25.28 0 0 1-3 4.27c-4.69 4.86-7.05-.64-8.3-4.19a72.23 72.23 0 0 1-4.07-23.89 70.66 70.66 0 0 1 4-23.89c.67-1.86 1.32-4 2.67-5.54 4-4.47 7-1.23 9 2.1a62.16 62.16 0 0 1 5.6 12.3c5 15.19 3.44 33.88-8.91 45.28-7.58 7-17.54 7.28-22.61-2.41-3.69-7-4.88-15.87-5.57-23.68a105.55 105.55 0 0 1 .87-25.7c1.18-7.49 2.82-16.17 6.67-22.81 2.14-3.71 5.67-7.33 10.39-5.45 3.88 1.54 6.16 5.68 7.66 9.36a84.29 84.29 0 0 1 5.67 26 86.24 86.24 0 0 1-1.88 25.63C245.12 84 237 104.73 230 93.26c-4-6.51-4.75-16.24-5.26-23.67a95.68 95.68 0 0 1 1.5-24.59c.88-4.53 4.07-22.66 9.53-22.37 2.67.14 2.6 2.19 3.23 4.61q.78 3 1.38 6.11A98.26 98.26 0 0 1 242 47.17a100.46 100.46 0 0 1-1.81 24.52c-1.51 7.54-3.42 18.23-9.49 23.54-9.86 8.62-14.84-6.06-17.08-13.32a108.36 108.36 0 0 1-3.18-50.57c.62-3.48 1-8.43 3.4-11.24 5.39-6.44 8.21 5.53 9.1 8.7a84 84 0 0 1-1.06 48.2c-1.77 5.45-9.12 24.39-17.63 16.3-2.57-2.44-3.09-7-3.68-10.31A119 119 0 0 1 199 69.23a121.41 121.41 0 0 1 7-48.72 14.83 14.83 0 0 1 1.31-3.36c.74-1 4.12-3.2 5.57-2.48.82.4 1.4 4.19 1.63 5.07A95.11 95.11 0 0 1 217 32.79a98.77 98.77 0 0 1-5.64 46.79 55.25 55.25 0 0 1-5 10.79c-2 3.07-6.35 7.1-10.36 3.56-1.6-1.41-2.07-4.48-2.51-6.48a137.83 137.83 0 0 1-1.19-51.33 144.41 144.41 0 0 1 6-23.62h-2.89a149.87 149.87 0 0 1 2.84 37.89 146.21 146.21 0 0 1-2.4 19.61c-1.06 5.52-1.91 12.15-5 17a8.33 8.33 0 0 1-2.85 3c-4.45 2-5.69-2.88-6.42-5.36a71.7 71.7 0 0 1-1.8-8.64 98.38 98.38 0 0 1-1.21-18.08 100.59 100.59 0 0 1 7.93-36.49l-1.45 1.1c3.24.28 2.72 15.86 2.72 18.37a118.75 118.75 0 0 1-1.4 18.16c-1.82 11.7-5.23 23.69-10.76 34.2a20.91 20.91 0 0 1-1.36 2.36q-1.31 3.11-4.38 1.23-2.92.71-3.24-1.6c-1.5-2.5-1.28-7.1-1.5-9.93a132.92 132.92 0 0 1-.13-18.25c.71-11.54 1.71-27.4 10.73-35.81l-2.51-.66a98.77 98.77 0 0 1 2.85 34.72C175.63 69.63 169.25 106 160 98c-3.33-2.87-3.83-11.39-4.45-15.43a101.24 101.24 0 0 1-1.08-18.32 103.89 103.89 0 0 1 7.44-35.3H159a92.36 92.36 0 0 1 2.82 36 90.81 90.81 0 0 1-4.21 18.32 58.09 58.09 0 0 1-3.74 9.08c-1.59 2.9-5.62 8.17-9.83 6.43-5.78-2.4-7.14-12.19-8.18-17.62a76.81 76.81 0 0 1-1.3-17 77.73 77.73 0 0 1 9.65-35l-1.69.69C147.94 32 147 43 147.16 47.61a112.46 112.46 0 0 1-1.27 20 113.89 113.89 0 0 1-4.09 17.32c-1.87 5.84-4 14.43-8.58 18.84-7.89 7.64-11-8.27-12-13.15A76.38 76.38 0 0 1 119.79 73a77.56 77.56 0 0 1 10-35.4l-2.05.54c6.19 2.82 6.44 12.89 6.88 18.69a85.7 85.7 0 0 1-.9 20.17A87 87 0 0 1 129 94.4c-1.73 4.47-8.09 21.64-14.71 14.52-3.9-4.2-3.33-13.17-3.65-18.46a173.75 173.75 0 0 1 0-21 169.13 169.13 0 0 1 2.86-22.32c1.06-5.42 2-14 8.18-16l-1.85-1c6 23.11 4.63 49-5.55 70.77-2.07 4.44-5.61 10.5-11.16 10.65-6.73.18-10.1-8.3-11.87-13.48a57.26 57.26 0 0 1-.52-35.17c.33-1.06.68-2.11 1.07-3.15.94-2.5.79-4.3 3.42-4S98.3 60.2 99 62.69A105 105 0 0 1 102.78 82a106.5 106.5 0 0 1-2.39 35.21 42.93 42.93 0 0 1-2.67 8.79 9.81 9.81 0 0 1-1.92 3c-4.41 3.53-5.89-.55-6.9-3.25a142 142 0 0 1-5.19-18.11c-2.7-11.85-4.94-24.77-4.28-37 .21-3.93 1.31-9.83 7.09-8.55 4.3 1 5.79 6.12 6.47 9.76a130.4 130.4 0 0 1 1.9 21.48 160.33 160.33 0 0 1-5.26 43.4 1.5 1.5 0 0 0 2.89.8zM69.53 123.4a116 116 0 0 0-16.14 30c-.62 1.71 1.82 2.44 2.74 1.16l22.3-31.06-2.74-1.16-9.33 23.4c-.67 1.69 1.83 2.43 2.74 1.16l10.56-14.64-2.74-1.16-7 17.8c-.63 1.6 1.93 2.62 2.74 1.16l10-18-2.74-1.16-2.67 18.86c-.25 1.6 1.75 2.72 2.75 1.16a76.63 76.63 0 0 0 7-14.75l-2.95-.4a73.82 73.82 0 0 1-.72 22.1c-.35 1.88 2.51 2.7 2.89.8l2.6-13c.38-1.88-2.5-2.69-2.89-.8q-2.72 13.14-6.62 26l2.95.4a113.81 113.81 0 0 1 3-17c.49-1.92-2.19-2.55-2.89-.8a121.73 121.73 0 0 1-8.69 17.39l2.71 1.14a141 141 0 0 1 5.1-21.49l-2.89-.8a101.67 101.67 0 0 1-8.39 23.11l2.73 1.18 5.55-22.91a1.51 1.51 0 0 0-2.74-1.09l-12 20.5 2.74 1.16a195.91 195.91 0 0 1 6.09-23 1.51 1.51 0 0 0-2.74-1.16l-11 21 2.74 1.16a184.52 184.52 0 0 0 7.78-23.2 1.51 1.51 0 0 0-2.74-1.16l-12.53 19.48 2.74 1.16a49 49 0 0 0 2.1-16.28 1.51 1.51 0 0 0-2.8-.76l-10.2 17.45 2.74 1.16a104.71 104.71 0 0 0 3.39-19.94c.13-1.75-2.45-1.95-2.95-.4a74.41 74.41 0 0 0-3.63 23.28 1.51 1.51 0 0 0 2.8.76L54 160.69l-2.74-1.16L46 184.95c-.32 1.57 2 2.77 2.74 1.16l10-20.52-2.74-1.16-5.66 21c-.43 1.6 2 2.71 2.74 1.16l10.56-21-2.74-1.16-8.64 23c-.51 1.37 1.58 2.61 2.51 1.46A118.74 118.74 0 0 0 67 170.45l-2.74-1.16L55 193.64a1.51 1.51 0 0 0 2.51 1.46l19.38-23.83-2.51-1.46-9.15 21.81c-.67 1.61 1.89 2.56 2.74 1.16L81.19 171l-2.59-1.51-9.16 19.64a1.5 1.5 0 0 0 2.56 1.54l9.41-13.11-2.57-1.56a115.88 115.88 0 0 1-17.72 21l2.56 1-.47-5.63a1.52 1.52 0 0 0-2.56-1.06A195.46 195.46 0 0 0 45 208.84l2.51 1.46 6.69-18.41c.58-1.59-2-2.68-2.74-1.16l-8.76 17.93 2.59 1.51a245.7 245.7 0 0 0 9.3-24.77 1.51 1.51 0 0 0-2.74-1.16 129.32 129.32 0 0 0-7.19 15.27l2.89.8 4-24.69c.25-1.55-1.91-2.8-2.74-1.16a80.3 80.3 0 0 0-6.47 17.44l2.89.8a163.72 163.72 0 0 0 3.19-18.06c.21-1.76-2.44-1.92-2.95-.4a133.65 133.65 0 0 0-6.17 28.65c-.2 1.92 2.79 1.9 3 0l3.22-28.64c.22-1.92-2.77-1.89-3 0l-4.19 34c-.21 1.74 2.46 1.94 2.95.4l1.88-5.91c.6-1.88-2.19-2.54-2.89-.8l-9.16 22.69c-.67 1.66 1.84 2.47 2.74 1.16l17.25-25.16-2.74-1.16L40 223.13c-.6 1.69 1.83 2.48 2.74 1.16l15.72-22.91-2.74-1.16a212 212 0 0 1-12.92 29.12 1.5 1.5 0 0 0 2.59 1.51l13-22.12-2.74-1.16A232.25 232.25 0 0 1 44 231.78l2.74 1.16 3-8.43c.66-1.85-2.18-2.54-2.89-.8l-9.05 21.93 2.89.8a112 112 0 0 0 4.59-23.26c.17-1.84-2.36-1.81-2.95-.4l-7.85 18.72 2.89.8a148 148 0 0 1 4.45-20.63l-2.89-.8-5.63 21.37a1.5 1.5 0 0 0 2.89.8 65.59 65.59 0 0 0 3-21.35 1.51 1.51 0 0 0-2.95-.4l-7.79 19.25 2.89.8 2.08-14.68c.22-1.53-1.89-2.81-2.74-1.16A45.68 45.68 0 0 0 26 239.69c-.29 1.87 2.52 2.72 2.89.8l3-15.14a1.5 1.5 0 0 0-2.89-.8 37.46 37.46 0 0 0-.58 20.72 1.52 1.52 0 0 0 2.74.36l2.84-3.75-2.74-.36 1.51 8a1.51 1.51 0 0 0 2.74.36l2.49-5.41-2.74-.36c.94 2.43-3.91 7.79.57 9.27a2.71 2.71 0 0 0 3.58-3.23c-.36-1.34-2.65-1.51-2.89 0l-.83 5.07c-.31 1.89 2.58 2.7 2.89.8l.78-5.02h-2.89c-.29-1.07 1.81-3.53 2-5a3.9 3.9 0 0 0-.35-2.68c-.41-1-2.16-1.67-2.74-.36L33 248.4l2.74.36-1.51-8c-.27-1.42-2-1.26-2.74-.36l-2.88 3.74 2.74.36a34.46 34.46 0 0 1 .58-19.12l-2.89-.8-3 15.14 2.89.8A43.09 43.09 0 0 1 33.29 227l-2.74-1.16-2.08 14.68a1.5 1.5 0 0 0 2.89.8l7.79-19.25-2.95-.4a63.07 63.07 0 0 1-2.9 20.56l2.89.8 5.63-21.37a1.5 1.5 0 0 0-2.89-.8 148 148 0 0 0-4.45 20.63 1.5 1.5 0 0 0 2.89.8l7.86-18.73-2.95-.4a108.21 108.21 0 0 1-4.48 22.46c-.59 1.89 2.18 2.53 2.89.8l9.05-21.93-2.89-.8-3 8.43c-.57 1.61 1.93 2.63 2.74 1.16a239 239 0 0 0 11.92-24.92c.66-1.6-1.9-2.58-2.74-1.16l-13 22.12 2.59 1.51A217.17 217.17 0 0 0 58.64 201c.6-1.69-1.83-2.48-2.74-1.16l-15.72 22.93 2.74 1.16 8.37-23.65c.6-1.69-1.83-2.48-2.74-1.16l-17.26 25.16 2.71 1.16 9.16-22.69-2.86-.75-1.88 5.91 2.95.4 4.19-34h-3l-3.22 28.64h3a129.88 129.88 0 0 1 6.06-27.86l-2.95-.4a156.58 156.58 0 0 1-3.09 17.26c-.44 1.88 2.43 2.68 2.89.8A76.92 76.92 0 0 1 51.44 176l-2.74-1.16-4 24.69a1.5 1.5 0 0 0 2.89.8 123.27 123.27 0 0 1 6.89-14.55l-2.78-1.18a238.52 238.52 0 0 1-9 24.05c-.76 1.73 1.73 3.27 2.59 1.51L54 192.25l-2.74-1.16-6.69 18.41c-.5 1.36 1.58 2.63 2.51 1.46a195.46 195.46 0 0 1 15.65-17.49l-2.56-1.06.51 5.59a1.52 1.52 0 0 0 2.56 1.06 119.34 119.34 0 0 0 18.19-21.55c1.08-1.63-1.48-3.06-2.59-1.51l-9.41 13.11 2.57 1.56L81.19 171a1.5 1.5 0 0 0-2.59-1.51l-13.18 21.77 2.74 1.16 9.15-21.81c.57-1.37-1.59-2.59-2.51-1.46L55.42 193l2.51 1.46 9.23-24.34c.61-1.6-1.94-2.64-2.74-1.16a114.59 114.59 0 0 1-11.8 17.79l2.51 1.46 8.64-23c.6-1.59-2-2.67-2.74-1.16L50.47 185l2.74 1.16 5.66-21c.43-1.59-2-2.72-2.74-1.16l-10 20.52 2.74 1.16 5.24-25.42c.33-1.59-1.89-2.73-2.74-1.16l-5.67 10.5 2.8.76A71.87 71.87 0 0 1 52 148l-2.95-.4a100.53 100.53 0 0 1-3.25 19.1 1.51 1.51 0 0 0 2.74 1.16l10.2-17.45-2.8-.76a46.62 46.62 0 0 1-2 15.49 1.51 1.51 0 0 0 2.74 1.16l12.52-19.52-2.74-1.16a184.52 184.52 0 0 1-7.78 23.2c-.65 1.57 2 2.64 2.74 1.16l11-21-2.74-1.16a195.91 195.91 0 0 0-6.09 23 1.51 1.51 0 0 0 2.79 1.18l12-20.5-2.74-1.16L70 173.22c-.39 1.59 1.94 2.73 2.74 1.16a104.91 104.91 0 0 0 8.7-23.82 1.5 1.5 0 0 0-2.89-.8 141 141 0 0 0-5.1 21.49c-.25 1.6 1.81 2.71 2.74 1.16a126.6 126.6 0 0 0 9-18.1l-2.89-.8a119.15 119.15 0 0 0-3.14 17.76c-.17 1.73 2.47 2 2.95.4q3.9-12.84 6.62-26l-2.89-.8-2.6 13 2.89.8a76.61 76.61 0 0 0 .87-22.9 1.51 1.51 0 0 0-2.95-.4 72.91 72.91 0 0 1-6.65 14l2.74 1.16 2.67-18.86c.22-1.56-1.84-2.77-2.74-1.16l-10 18 2.74 1.16 7-17.8c.67-1.69-1.82-2.43-2.74-1.16l-10.55 14.68 2.74 1.16 9.33-23.4c.67-1.69-1.83-2.43-2.74-1.16L53.54 153l2.74 1.16a113.35 113.35 0 0 1 15.83-29.28c1.16-1.55-1.45-3-2.59-1.51zM245.26 111.26a58.2 58.2 0 0 0 6.36 21.14c.85 1.63 3 .4 2.74-1.16l-3.17-20.71c-.25-1.66-3.11-1.28-2.95.4a49 49 0 0 0 4.07 15.41c.62 1.39 2.83.65 2.8-.76a61.07 61.07 0 0 0-2.51-16 1.5 1.5 0 0 0-2.89.8 59 59 0 0 0 6.21 16 1.51 1.51 0 0 0 2.8-.76 63.7 63.7 0 0 0-3.26-24 1.5 1.5 0 0 0-2.89.8 57.28 57.28 0 0 0 6.18 15.27c.71 1.21 2.94.78 2.8-.76A133.93 133.93 0 0 0 258.21 97l-2.89.8a78.65 78.65 0 0 0 6.52 16.53 1.51 1.51 0 0 0 2.8-.76 25.88 25.88 0 0 0-2.19-11.45c-.71-1.66-3-.4-2.74 1.16a94.16 94.16 0 0 0 6.39 20.5l2.36-1.82-4.72-6c-1-1.32-2.71.18-2.51 1.46a54.66 54.66 0 0 0 5.91 17.37l2.59-1.51-7.26-11.79a1.51 1.51 0 0 0-2.74 1.16 47 47 0 0 0 6.42 14.35 1.5 1.5 0 0 0 2.59-1.51 77.79 77.79 0 0 0-7-11.66A1.51 1.51 0 0 0 259 125a59 59 0 0 0 6.33 18.55c.79 1.47 3.33.46 2.74-1.16a45.75 45.75 0 0 0-6.78-12.4c-.79-1-3-.91-2.8.76a108.26 108.26 0 0 0 5.77 25.82 1.5 1.5 0 0 0 2.89-.8 117.82 117.82 0 0 0-8.98-23.77 1.51 1.51 0 0 0-2.8.76 74.28 74.28 0 0 0 5.71 29.21c.6 1.43 3 1.45 2.95-.4l-.53-13.84a1.5 1.5 0 0 0-3 0 34.63 34.63 0 0 0 5.4 18.64 1.51 1.51 0 0 0 2.8-.76 110 110 0 0 0-1.25-19.22l-2.89.8a49.07 49.07 0 0 0 6.73 16.21 1.52 1.52 0 0 0 2.71-.4 33 33 0 0 0-1.91-19.82c-.58-1.38-3.16-1.46-2.95.4a28.1 28.1 0 0 0 5.64 14.3c.84 1.1 2.81.87 2.8-.76a42.31 42.31 0 0 0-4.12-17.92 1.51 1.51 0 0 0-2.8.76 25.63 25.63 0 0 0 5.81 14.74 1.51 1.51 0 0 0 2.56-1.06 45.5 45.5 0 0 0-6.35-20.3c-1-1.7-3.34-.21-2.59 1.51a137.68 137.68 0 0 0 11.76 21.55 1.51 1.51 0 0 0 2.74-1.16 30.64 30.64 0 0 0-2.81-8.63c-.74-1.51-3.3-.45-2.74 1.16a70.36 70.36 0 0 0 10.05 19.12c.94 1.27 3.29.6 2.74-1.16l-4.77-15.24c-.48-1.55-3.07-1.36-2.95.4.68 9.86-.86 19.71-.18 29.56l2.95-.4c-2.94-7.28-3.34-15.27-6.28-22.55a1.51 1.51 0 0 0-2.95.4 113.26 113.26 0 0 0 .72 21l2.95-.4a88.68 88.68 0 0 0-6.18-21.5 1.51 1.51 0 0 0-2.74.36 71.66 71.66 0 0 0 .22 23.71c.3 1.72 2.89 1.23 2.95-.4a43.2 43.2 0 0 0-3.69-19.12c-.67-1.55-2.63-.5-2.8.76a73.77 73.77 0 0 0 1 24.65c.34 1.64 3.09 1.3 2.95-.4l-1.73-20.71a1.5 1.5 0 0 0-3 0 74.59 74.59 0 0 0 1.64 25.46c.33 1.37 2.66 1.49 2.89 0a30.46 30.46 0 0 0 .06-9.32c-.24-1.66-3.13-1.28-2.95.4a76 76 0 0 0 3.76 16.93c.39 1.11 2.14 1.61 2.74.36a35.14 35.14 0 0 0 3.56-17.89 1.5 1.5 0 0 0-3 0l-.59 21.21a1.51 1.51 0 0 0 2.95.4c2.51-8.65 7.5-16.41 10-25.05l-2.95-.4c.3 9.07-4.59 17.66-4.29 26.74a1.51 1.51 0 0 0 2.95.4 130.94 130.94 0 0 0 5.19-21.24l-2.95-.4-1.54 16.95c-.16 1.75 2.45 1.93 2.95.4 2.83-8.68 1.31-18.18 4.14-26.86l-2.95-.4c-.42 9.76 2.26 19.4 1.84 29.16a1.51 1.51 0 0 0 2.95.4l3.3-12.63c.41-1.58-2-2.76-2.74-1.16l-10.17 23.27 2.8.76.73-13.3c.08-1.41-2.21-2.14-2.8-.76l-11.41 26.87 2.74 1.16 5.93-23.8a1.5 1.5 0 0 0-2.89-.8l-7.19 22.8 2.89.8 6.09-24.19c.4-1.58-2-2.77-2.74-1.16l-6.39 14.75 2.74.36a54 54 0 0 1-.67-16.54c.18-1.67-2.63-2.06-2.95-.4a43 43 0 0 0 3.13 26.3 1.51 1.51 0 0 0 2.59 0l2.94-5.32-2.8-.76a60 60 0 0 0 2.32 21.72 1.51 1.51 0 0 0 2.89 0 55.63 55.63 0 0 0 .84-20.36c-.25-1.78-2.82-1.16-2.95.4a73 73 0 0 0 .63 17.24c.25 1.62 2.43 1.21 2.89 0a62.05 62.05 0 0 0 4.09-20.85c0-1.94-2.9-1.92-3 0l-.76 14.68c-.09 1.76 2.42 1.94 2.95.4a71.69 71.69 0 0 0 3.36-15.35c.21-1.92-2.79-1.9-3 0a68 68 0 0 1-3.26 14.55l2.95.4.76-14.68h-3a59.58 59.58 0 0 1-4 20.05h2.89a69.61 69.61 0 0 1-.53-16.44l-2.95.4a51.45 51.45 0 0 1-.84 18.77H283a57.66 57.66 0 0 1-2.21-20.92 1.51 1.51 0 0 0-2.8-.76l-2.94 5.32h2.59a39.42 39.42 0 0 1-2.82-24l-2.95-.4a56.81 56.81 0 0 0 .78 17.34 1.51 1.51 0 0 0 2.74.36l6.39-14.75-2.78-1.15-6 24.19a1.5 1.5 0 0 0 2.89.8l7.25-22.8-2.89-.8-5.93 23.8c-.39 1.57 2.05 2.78 2.74 1.16l11.41-26.87-2.8-.76-.73 13.3c-.08 1.42 2.19 2.13 2.8.76l10.17-23.27-2.74-1.16-3.31 12.62 2.95.4c.42-9.76-2.26-19.4-1.84-29.16.07-1.75-2.44-2-2.95-.4-2.83 8.68-1.31 18.18-4.14 26.86l2.95.4 1.54-16.95c.15-1.67-2.68-2.07-2.95-.4a130.94 130.94 0 0 1-5.19 21.24l2.95.4c-.3-9.07 4.59-17.66 4.29-26.74a1.51 1.51 0 0 0-2.95-.4c-2.51 8.65-7.5 16.41-10 25.05l2.95.4.58-21.2h-3a32.11 32.11 0 0 1-3.15 16.36l2.74.36a72.48 72.48 0 0 1-3.65-16.14l-2.95.4a24.35 24.35 0 0 1-.06 7.72h2.89a72.2 72.2 0 0 1-1.54-24.66h-3l1.67 20.71 2.95-.4a71.3 71.3 0 0 1-.87-23.85l-2.8.76a39.89 39.89 0 0 1 3.28 17.61l2.95-.4a67 67 0 0 1-.22-22.11l-2.74.36a85.75 85.75 0 0 1 5.9 20.82c.25 1.65 3.16 1.28 2.95-.4a113.26 113.26 0 0 1-.72-21l-2.95.4c2.94 7.28 3.34 15.27 6.28 22.55.58 1.43 3.07 1.44 2.95-.4-.68-9.86.86-19.71.18-29.56l-2.95.4 4.77 15.24 2.74-1.16a67.79 67.79 0 0 1-9.76-18.4l-2.74 1.16a27.5 27.5 0 0 1 2.51 7.91l2.74-1.16a137.68 137.68 0 0 1-11.76-21.55l-2.59 1.51a42.14 42.14 0 0 1 5.9 18.79l2.56-1.06a22.07 22.07 0 0 1-4.88-12.6l-2.8.76a38.6 38.6 0 0 1 3.71 16.4l2.8-.76a25.3 25.3 0 0 1-5.23-12.79l-2.95.4a30.45 30.45 0 0 1 1.91 18.23l2.74-.36a47 47 0 0 1-6.43-15.49c-.42-1.92-3.18-1.07-2.89.8a105.53 105.53 0 0 1 1.14 18.42l2.8-.76a31.68 31.68 0 0 1-5-17.12h-3l.52 13.82 2.95-.4a72 72 0 0 1-5.6-28.41l-2.8.76a114.25 114.25 0 0 1 8.65 23l2.89-.8a105 105 0 0 1-5.66-25l-2.8.76a42.94 42.94 0 0 1 6.48 11.69l2.74-1.16a56.51 56.51 0 0 1-6-17.84l-2.74 1.16a77.79 77.79 0 0 1 7 11.66l2.59-1.51a44.68 44.68 0 0 1-6.14-13.65l-2.7 1.19 7.26 11.79a1.5 1.5 0 0 0 2.59-1.51 52.36 52.36 0 0 1-5.61-16.66l-2.51 1.46 4.72 6c1.14 1.45 3-.4 2.36-1.82a90.83 90.83 0 0 1-6.09-19.78l-2.74 1.16a22.56 22.56 0 0 1 1.79 9.93l2.8-.76A75.26 75.26 0 0 1 258.21 97a1.5 1.5 0 0 0-2.89.8 128.49 128.49 0 0 1 3.22 19.13l2.8-.76a54.6 54.6 0 0 1-5.88-14.55l-2.89.8a61.57 61.57 0 0 1 3.15 23.19l2.8-.76a56.34 56.34 0 0 1-5.9-15.28l-2.89.8a58.06 58.06 0 0 1 2.4 15.22l2.8-.76a44.19 44.19 0 0 1-3.66-13.89l-2.95.4 3.15 20.66 2.74-1.16a54.15 54.15 0 0 1-6-19.63c-.2-1.9-3.2-1.92-3 0z"/><path d="M213.51 320.77c.93-8.9 1.82-18 0-26.83s-8.9-16.19-9.76-25.26c-.18-1.91-3.18-1.92-3 0 .8 8.48 6.67 14.82 9 22.79 2.83 9.49 1.75 19.61.74 29.3-.2 1.92 2.8 1.9 3 0zM155.16 219.74l8.57 7.24c1.23 1 3.32-.28 2.36-1.82a54.51 54.51 0 0 0-6-7.92l-2.12 2.12a48.7 48.7 0 0 1 7.23 9.45l2.05-2.05-6.25-3.41a1.51 1.51 0 0 0-2 2.05l4.14 7.14 2.36-1.82-13.08-12.61c-1.18-1.13-3.39.39-2.36 1.82l7.41 10.26a1.5 1.5 0 0 0 2.59-1.51 38.6 38.6 0 0 0-6.56-9.79c-1-1.05-3.08.05-2.51 1.46a62 62 0 0 0 6.08 11.4 1.5 1.5 0 0 0 2.59-1.51 134.62 134.62 0 0 0-7.44-12.64 1.5 1.5 0 0 0-2.59 1.51l4.8 9.42 2.36-1.82-10.65-11.27a1.51 1.51 0 0 0-2.51 1.46 59.93 59.93 0 0 0 7.81 15.55l2.36-1.82a131.62 131.62 0 0 0-12.52-13.38 1.51 1.51 0 0 0-2.51 1.46 22.44 22.44 0 0 0 5.41 9.91 1.51 1.51 0 0 0 2.36-1.82 73.56 73.56 0 0 0-8.63-11.2c-1.21-1.3-3.09.35-2.36 1.82l3.79 7.63 2.36-1.82-8.96-9.23c-1.23-1.27-3.09.34-2.36 1.82a30.78 30.78 0 0 0 5.28 7.53c1.2 1.27 3.14-.35 2.36-1.82a26.21 26.21 0 0 0-6.59-8.08 1.52 1.52 0 0 0-2.56 1.06 15.8 15.8 0 0 0 2.09 8l2.36-1.82a70.26 70.26 0 0 0-12.62-11.32c-1.17-.82-2.43.53-2.2 1.69a18.82 18.82 0 0 0 3.68 8.26l2.36-1.82a54.15 54.15 0 0 0-6.89-6c-1.41-1-3 1.17-1.82 2.36l4.5 4.71 2.12-2.12-10.12-9.54c-1.18-1.11-3.43.4-2.36 1.82l2.2 2.91 2.36-1.82-7.25-5.62c-1-.8-3.1-.12-2.51 1.46l1.08 2.88 2.2-1.69a41.94 41.94 0 0 0-13.93-5.9c-1.88-.42-2.68 2.47-.8 2.89a39.75 39.75 0 0 1 13.21 5.59 1.51 1.51 0 0 0 2.2-1.69l-1.08-2.88-2.51 1.46 7.25 5.62c1.2.93 3.49-.32 2.36-1.82l-2.2-2.91-2.35 1.79 10.12 9.54a1.5 1.5 0 0 0 2.12-2.12l-4.5-4.71-1.82 2.36a49.26 49.26 0 0 1 6.29 5.49c1.15 1.18 3.41-.43 2.36-1.82a17.41 17.41 0 0 1-3.38-7.55l-2.2 1.69a67.09 67.09 0 0 1 12 10.85c1.15 1.32 3.15-.37 2.36-1.82a12.67 12.67 0 0 1-1.68-6.44l-2.56 1.06a24.28 24.28 0 0 1 6.12 7.47l2.36-1.82a28.17 28.17 0 0 1-4.79-6.88l-2.36 1.82 8.93 9.26c1.23 1.27 3.09-.34 2.36-1.82l-3.79-7.63-2.36 1.82a69.48 69.48 0 0 1 8.16 10.59l2.36-1.82a19.13 19.13 0 0 1-4.63-8.59l-2.51 1.46a131.62 131.62 0 0 1 12.52 13.38c1.07 1.31 3.33-.42 2.36-1.82a57.26 57.26 0 0 1-7.51-14.83l-2.53 1.46 10.65 11.27c1.21 1.28 3.11-.35 2.36-1.82l-4.8-9.42-2.59 1.51a134.62 134.62 0 0 1 7.38 12.64l2.59-1.51a58.25 58.25 0 0 1-5.77-10.69l-2.47 1.44a36 36 0 0 1 6.09 9.18l2.59-1.51-7.41-10.26-2.36 1.82 13.08 12.61a1.51 1.51 0 0 0 2.36-1.84l-4.14-7.14-2.05 2.05 6.19 3.42a1.51 1.51 0 0 0 2.05-2.05 51.77 51.77 0 0 0-7.7-10.05c-1.36-1.39-3.42.7-2.12 2.12a50.53 50.53 0 0 1 5.57 7.31l2.36-1.82-8.57-7.24c-1.47-1.24-3.6.87-2.12 2.12zM210.06 226.14c-.34 2.07-1.66 2.59-.48 4.59a1.56 1.56 0 0 0 1.69.69l.52-.08-1.46-2.51a17.89 17.89 0 0 0-4.71 7.92 1.51 1.51 0 0 0 2.51 1.46l6.28-7.07-2.36-1.82a23.18 23.18 0 0 0-2.87 11 1.51 1.51 0 0 0 2.26 1.3 28.36 28.36 0 0 0 9.3-10.7l-2.59-1.51a16.84 16.84 0 0 0-1.73 7.78 1.51 1.51 0 0 0 2.26 1.3 32.09 32.09 0 0 0 9.94-10.84l-2.74-1.16-1.82 5.73a1.51 1.51 0 0 0 .69 1.69c5.49 2.43 10.17-6.9 12.06-10.77.59-1.2-.73-3-2.05-2.05a6 6 0 0 0-2.59 6.54 1.51 1.51 0 0 0 2.2.9 30.45 30.45 0 0 0 8.48-9.56l-2.74-1.16a8.5 8.5 0 0 0-.54 4.65 1.53 1.53 0 0 0 1.5 1.5c5.12-.23 7.67-3.78 9.86-8.06l-2.8-.76-.75 1.61c-1.15 1.55 1.45 3 2.59 1.51a4.54 4.54 0 0 0 1.16-3.12c.19-1.49-2.15-2-2.8-.76-1.57 3.06-3.1 6.39-7.27 6.57l1.5 1.5a5.14 5.14 0 0 1 .43-3.85c.61-1.61-1.92-2.61-2.74-1.16a26.85 26.85 0 0 1-7.41 8.48l2.2.9 1.21-3.15-2.05-2.05c-.86 1.76-5.52 10.78-8 9.7l.69 1.69 1.82-5.73a1.51 1.51 0 0 0-2.74-1.16 28.53 28.53 0 0 1-8.86 9.76l2.26 1.3a13.55 13.55 0 0 1 1.32-6.27c.81-1.73-1.72-3.25-2.59-1.51a25.29 25.29 0 0 1-8.22 9.62l2.26 1.3a19.75 19.75 0 0 1 2.46-9.51c.78-1.44-1.18-3.14-2.36-1.82l-6.24 7.1 2.51 1.46a14.88 14.88 0 0 1 3.93-6.59 1.51 1.51 0 0 0-1.46-2.51l-.52.08 1.69.69c.27.45.84-2.63.78-2.28.31-1.89-2.58-2.7-2.89-.8z"/></svg>