<?xml version="1.0" encoding="utf-8"?>
<!-- Generator: Adobe Illustrator 19.1.0, SVG Export Plug-In . SVG Version: 6.00 Build 0)  -->
<!DOCTYPE svg PUBLIC "-//W3C//DTD SVG 1.1//EN" "http://www.w3.org/Graphics/SVG/1.1/DTD/svg11.dtd">
<svg version="1.1" id="Layer_1" xmlns="http://www.w3.org/2000/svg" xmlns:xlink="http://www.w3.org/1999/xlink" x="0px" y="0px"
	 viewBox="-289 170 220.6 262" style="enable-background:new -289 170 220.6 262;" xml:space="preserve">
<style type="text/css">
	.st0{fill:#FFFFFF;}
</style>
<title>H</title>
<path class="st0" d="M-259.2,190.4c-2.2-1-4.3-2-6.2-3.1c-4-2-7.7-4.5-11-7.6c-3.3-3.2-7.2-5.6-11.1-8.1c0,2.2,0.5,4.3,1.5,6.3
	c0.9,1.7,2,3.1,3,4.6c3.7,6,8,11.6,12.9,16.8c3.4,3.6,6.4,7.6,10.1,10.8c0.7,0.5,1.3,1.2,1.7,2c0.2,0.6,0.2,1.2,0.2,1.9
	c-0.2,9.6-3.3,17.8-6.4,26.9c-4.9,14.5-8.1,29.4-9.6,44.6c-1.3,12.5-1.7,25.2,0.3,37.7c3.5,21.8,14.1,46.4,27.4,64.1
	c4.9,6.6,12.6,12.4,18.5,18.3c7.5,7.5,16.1,14.3,26.1,18.3c29,11.7,65.4,6.8,93.1-6.1c4.2-1.8,8.2-4.2,11.8-7.2
	c9.3-8.1,15.6-15.9,19.5-27.6c4.1-12.4,5.4-25.6,6.4-38.6c1.7-22.7,1-45.6-0.8-68.3c-1.5-19.2-4.1-38.9-13.6-55.6
	c-10.4-18.1-28.3-31.2-48-38.1c-8.9-3.2-19-5.9-28.5-6.2c-6.8-0.2-13.4,1.2-20.2,1c-11.1-0.3-24.1,1.3-34.3,5.8
	c-6.7,3-13,6.5-19.4,9.9c-1.3,0.8-2.8,1.4-4.3,1.7c-1.9,0.2-3.8-0.1-5.5-0.7c-3.1-0.9-6.5-1-9.6-2
	C-256.5,191.4-257.9,191-259.2,190.4L-259.2,190.4z"/>
<path d="M-259.4,191.8c3.4,1.3,6.9,2.2,10.4,2.8c2.9,0.6,5.9,1.9,9,1.5c5.5-0.7,11.4-5.3,16.2-7.8c13.4-6.9,26.6-9.6,41.7-9.6
	c7.6,0,15.2-1.5,22.8-0.9c8.1,0.6,16,2.8,23.7,5.4c12.5,4.1,24,10.7,33.8,19.5c20.1,18.3,25.8,43.9,28.1,69.9
	c2.4,27.6,3,55.3,0.1,82.9c-1.4,13.3-3.7,27.4-10.9,38.9c-6.7,10.5-16.5,18.7-28,23.5c-22.7,9.9-49.1,14.1-73.5,9.2
	c-12.9-2.5-24.9-8.3-34.8-16.8c-9.2-7.9-19.3-16.4-26.4-26.3c-14.6-20.4-24.8-45.9-26.4-71.1c-0.9-14.1,0.5-28.2,2.9-42.1
	c2.4-13.6,6.8-26.3,10.8-39.5c1.7-5.4,3.4-11.5,3.1-17.3c-0.2-4.4-4.2-6.6-7-9.6c-4.3-4.7-8.8-9.4-12.6-14.6s-9.5-11.7-9.7-18.2
	l-2.3,1.3c9.8,6.3,17.7,14.1,28.5,18.8c1.8,0.8,3.3-1.8,1.5-2.6c-10.7-4.7-18.8-12.5-28.5-18.8c-0.2-0.1-0.5-0.2-0.7-0.2
	c-0.8,0-1.5,0.7-1.5,1.5c0.3,7.1,5.3,13.1,9.2,18.5c3.9,5.4,8.5,10.2,12.9,15.2c2.1,2.4,6.5,5.6,7.2,8.7c0.9,3.9-1,9.4-2,13.2
	c-2,7.5-5,14.8-7.1,22.3c-8.5,29.8-11.4,62.4-2.1,92.3c3.8,12.4,9.2,24.2,15.9,35.3c3,5.2,6.6,10.2,10.5,14.7
	c4.1,4.5,8.8,8.4,13.2,12.5c9.3,8.8,18.4,16.9,30.6,21.5c11.5,4.2,23.6,6.3,35.9,6.1c13-0.1,25.9-2.1,38.4-5.9
	c11.2-3.4,23-7.7,31.9-15.6c8.5-7.5,15.1-16.4,18.7-27.2c4.4-13.1,5.6-27.2,6.6-40.9c2-28.9,1.2-59-3.4-87.7
	c-4-24.8-14.7-46.4-35.5-61.1c-9.7-6.7-20.4-11.8-31.7-15c-6.6-2.1-13.4-3.4-20.2-3.9c-7.3-0.4-14.6,1-21.9,1c-12,0-23.9,1.2-35,6
	c-6.6,2.9-12.7,7.1-19.4,9.9c-6.4,2.7-15.9-0.2-22.2-2.7C-260.5,188.2-261.2,191-259.4,191.8z"/>
</svg>
