<?xml version="1.0" encoding="utf-8"?>
<!-- Generator: Adobe Illustrator 19.1.0, SVG Export Plug-In . SVG Version: 6.00 Build 0)  -->
<!DOCTYPE svg PUBLIC "-//W3C//DTD SVG 1.1//EN" "http://www.w3.org/Graphics/SVG/1.1/DTD/svg11.dtd">
<svg version="1.1" id="Layer_1" xmlns="http://www.w3.org/2000/svg" xmlns:xlink="http://www.w3.org/1999/xlink" x="0px" y="0px"
	 viewBox="-137 157.8 523.8 286.2" style="enable-background:new -137 157.8 523.8 286.2;" xml:space="preserve">
<style type="text/css">
	.st0{fill:#FFFFFF;}
</style>
<title>H_</title>
<path class="st0" d="M-134.9,315.8c-2.7,19.3,3.9,39.2,15.5,54.9s27.8,27.5,45.1,36.5C12.2,452,121,441,215.1,442
	c21.5,0.2,43.3,0.4,63.9-5.7c9.9-2.9,19.4-7.4,28.9-11.6c9.4-4.3,19-8.7,27.2-15c46.6-35.6,70-115.9,28.9-163.1
	c-23.7-27.2-62-36-97.9-40.2c-42.9-5.1-86.2-5.9-129.4-5.2c-22.1,0.4-96.9-5.8-152.5,6.8c-2.5-9.6-16.8-30.4-27.7-35.6
	c-17.1-8.2-35.8-12.6-54.7-13c9.3,0.2,23.3,13.8,29.4,20c8.8,8.9,18.6,24.4,22,36.4c-30.9,12.3-56.9,36.7-74.2,64.9
	C-127.6,291.5-133.1,303.2-134.9,315.8z"/>
<path d="M-122.2,279.8c-1,1.6,1.6,3.2,2.7,1.5c17.3-28.1,42.5-51.7,73.3-64.2c0.8-0.3,1.2-1.1,1-1.9c-4.2-14.2-12.9-27.6-23.4-38.1
	c-7.7-7.7-18-18.7-29.5-19.4v3c10.2,0.2,20.4,1.6,30.3,4.2c8.8,2.3,18.6,5.1,26.3,10.1c6.2,4.1,11.2,10.3,15.4,16.3
	c3.6,5.1,7.2,10.8,8.9,16.9c0.3,0.8,1.1,1.2,1.8,1c8.9-2,18-3.5,27.1-4.6c33.6-4.1,67.6-3.6,101.4-2.6c35.6,1.1,71.3-0.2,107,1.8
	c21.3,1.2,42.8,2.9,63.9,6.5c17.7,3,35.5,7.6,51.5,16c30.5,16,48.1,45.6,48.2,79.9c0.1,31.3-12.5,63-33,86.6
	c-12,13.8-26.4,22.7-42.9,30.2c-10.1,4.7-20.3,9.4-31.1,12.4c-10.8,2.8-22,4.5-33.2,4.8c-20.2,1-40.6,0.1-60.9,0.3
	c-18.9,0.2-37.8,0.5-56.8,0.5c-39.4,0-79.1-1.2-117.9-8.3c-37.2-6.8-76.6-18.8-106.6-42.7c-15.5-12.4-28.1-28.8-33.1-48.2
	c-5.6-21.7,0.8-41.8,12.1-60.4C-118.7,279.7-121.2,278.2-122.2,279.8c-5.2,8.6-9.7,17.5-12.3,27.2c-10.8,39.4,16.1,75.3,48.1,95.1
	c33.8,20.9,73.8,31.2,112.8,36.5c40.8,5.5,82.1,5.7,123.1,5.2c20-0.2,40-0.6,60-0.5c22.1,0.1,44.6,0.9,66.2-4.7
	c10.5-2.7,20.7-7.2,30.4-11.6c9.7-4.5,19.7-8.8,28.4-15.2c12.4-9,22.7-20.9,30.8-33.8c16.6-26.4,25.4-59.4,19.8-90.4
	c-6.1-33.7-30.2-57.9-61.5-70c-17.2-6.7-35.5-10.1-53.7-12.4c-23.4-3-46.9-4.5-70.4-5.3c-22-0.7-44-0.2-66-0.3
	c-12.8-0.1-25.6-0.7-38.4-1c-37.1-0.8-74.9-0.3-111.3,7.8l1.8,1c-1.9-6.8-5.8-12.9-10-18.7s-9-11.5-14.8-15.7
	c-7.7-5.4-18-8.4-27-10.8c-10.5-2.7-21.2-4.3-32-4.5c-1.9,0-1.9,2.9,0,3c10.8,0.7,20.9,12,28.1,19.2c9.7,9.9,18,22.7,21.9,36.1
	l1-1.9C-78.7,227.1-104.4,251-122.2,279.8L-122.2,279.8z"/>
</svg>
