<svg xmlns="http://www.w3.org/2000/svg" viewBox="0 0 523.75 286.17"><defs><style>.a{fill:#fff}</style></defs><title>H_</title><path class="a" d="M16.05 163.41c17.24 28.19 43.22 52.52 74.17 64.85-3.36 12.06-13.15 27.49-22 36.42-6.11 6.16-20.1 19.81-29.44 20a132.9 132.9 0 0 0 54.72-13c10.85-5.19 25.23-26 27.68-35.59 55.55 12.6 130.43 6.41 152.49 6.78 43.18.74 86.48-.11 129.41-5.17 35.88-4.23 74.2-12.94 97.92-40.18 41.11-47.21 17.64-127.49-28.91-163.12-8.26-6.32-17.79-10.71-27.24-15S425.93 10.69 416 7.75c-20.59-6.07-42.43-5.91-63.89-5.69C258 3 149.22-8 62.66 36.74c-17.33 9-33.53 20.79-45.09 36.5S-.59 108.87 2.11 128.19c1.76 12.59 7.31 24.37 13.94 35.22z"/><path d="M14.76 164.17c17.79 28.79 43.5 52.74 75.07 65.54l-1-1.85c-3.95 13.39-12.2 26.17-21.94 36.08-7.12 7.24-17.27 18.52-28.06 19.23-1.91.12-1.95 3.05 0 3a138.07 138.07 0 0 0 32-4.5c9-2.38 19.35-5.35 27-10.79 5.86-4.17 10.63-9.88 14.82-15.67s8.13-11.91 10-18.69l-1.85 1c36.36 8.11 74.19 8.57 111.28 7.81 12.8-.26 25.61-.93 38.41-1 22-.1 44 .39 66-.33 23.51-.77 47-2.34 70.37-5.3 18.23-2.31 36.51-5.71 53.69-12.39 31.34-12.1 55.45-36.31 61.51-70.03 5.6-31.08-3.14-64-19.79-90.44-8.13-12.91-18.44-24.75-30.81-33.76-8.69-6.33-18.62-10.71-28.35-15.16S423.26 8 412.72 5.3C391.11-.31 368.6.49 346.48.6c-20 .1-40-.25-60-.46-41.08-.42-82.36-.3-123.15 5.24-39 5.3-79 15.6-112.77 36.48C18.52 61.66-8.36 97.57 2.42 137c2.63 9.64 7.19 18.61 12.34 27.12 1 1.65 3.59.14 2.59-1.51C6.08 144-.34 123.86 5.27 102.18 10.29 82.75 22.88 66.4 38.38 54c30-23.9 69.44-35.93 106.61-42.72C183.84 4.21 223.52 3 262.92 3c18.92 0 37.84.34 56.76.52 20.27.19 40.63-.66 60.88.32a151.19 151.19 0 0 1 33.18 4.84c10.79 3 21 7.69 31.14 12.35 16.48 7.58 30.88 16.48 42.87 30.24 20.51 23.54 33.12 55.24 33 86.57-.16 34.27-17.76 63.9-48.22 79.87-16 8.39-33.78 13-51.51 16-21.09 3.58-42.55 5.28-63.89 6.47-35.68 2-71.35.66-107 1.75-33.79 1-67.79 1.47-101.41-2.62-9.09-1.11-18.13-2.61-27.08-4.61a1.53 1.53 0 0 0-1.85 1c-1.7 6.09-5.31 11.72-8.92 16.85-4.22 6-9.25 12.26-15.45 16.34-7.63 5-17.5 7.84-26.27 10.11a134.56 134.56 0 0 1-30.31 4.16v3c11.52-.75 21.87-11.78 29.52-19.44 10.43-10.45 19.18-23.84 23.37-38.06a1.54 1.54 0 0 0-1-1.85c-30.8-12.49-55.93-36.09-73.27-64.16-1.12-1.65-3.72-.13-2.7 1.52z"/></svg>