<svg xmlns="http://www.w3.org/2000/svg" viewBox="0 0 220.65 261.96"><defs><style>.a{fill:#fff}</style></defs><title>H</title><path class="a" d="M190.67 20.31c-1.32.55-2.66 1-4 1.49-3.15 1-6.5 1.1-9.59 2a12.55 12.55 0 0 1-5.48.73 13.88 13.88 0 0 1-4.29-1.69c-6.4-3.39-12.73-6.93-19.36-9.87-10.19-4.52-23.23-6.13-34.26-5.82-6.85.19-13.41-1.23-20.15-1-9.48.27-19.56 3-28.46 6.17-19.68 6.92-37.65 20-48 38.1C7.56 67.12 5 86.85 3.49 106c-1.82 22.73-2.49 45.56-.81 68.27 1 13 2.27 26.17 6.38 38.6 3.88 11.71 10.21 19.48 19.5 27.65a48.7 48.7 0 0 0 11.83 7.24c27.74 12.9 64.14 17.77 93.11 6.06 10-4 18.56-10.81 26.14-18.35 5.88-5.85 13.58-11.74 18.51-18.31 13.29-17.67 23.87-42.31 27.35-64.08 2-12.45 1.6-25.17.26-37.71a205.9 205.9 0 0 0-9.58-44.6c-3.09-9.05-6.25-17.33-6.35-26.86a5.18 5.18 0 0 1 .22-1.93 5.4 5.4 0 0 1 1.7-2c3.72-3.18 6.73-7.2 10.08-10.75a103.9 103.9 0 0 0 12.87-16.82c1-1.54 2.14-2.94 3-4.55a13 13 0 0 0 1.47-6.35c-3.87 2.54-7.79 4.86-11.07 8.07a44.54 44.54 0 0 1-11 7.58 63.82 63.82 0 0 1-6.43 3.15z"/><path d="M190.27 18.86c-6.35 2.55-15.84 5.38-22.22 2.71-6.64-2.78-12.72-7-19.36-9.87-11.08-4.81-23-6-35-6-7.33 0-14.6-1.39-21.93-1a88.59 88.59 0 0 0-20.22 3.9 107.52 107.52 0 0 0-31.65 15C19.13 38.31 8.38 59.89 4.41 84.67-.18 113.32-1 143.41 1 172.32c1 13.75 2.19 27.8 6.58 40.94 3.62 10.82 10.24 19.7 18.69 27.25 8.86 7.89 20.73 12.23 31.91 15.59a135 135 0 0 0 38.35 5.9 99.75 99.75 0 0 0 35.86-6.11c12.14-4.65 21.27-12.76 30.59-21.52 4.41-4.14 9.11-8 13.19-12.49a93.84 93.84 0 0 0 10.54-14.72 160.17 160.17 0 0 0 15.86-35.32c9.32-29.93 6.35-62.52-2.11-92.34-2.13-7.52-5.1-14.79-7.13-22.34-1-3.79-2.88-9.33-2-13.21.72-3.17 5.11-6.34 7.21-8.72 4.42-5 9-9.83 12.88-15.24s8.94-11.38 9.21-18.46a1.51 1.51 0 0 0-2.26-1.3c-9.7 6.31-17.74 14.11-28.48 18.8-1.77.77-.24 3.36 1.51 2.59 10.8-4.72 18.73-12.46 28.48-18.8l-2.26-1.3c-.25 6.53-5.92 13.1-9.74 18.23s-8.26 9.84-12.57 14.57c-2.77 3-6.78 5.22-7 9.61-.29 5.75 1.39 11.85 3.06 17.29 4 13.15 8.44 25.86 10.81 39.48 2.4 13.82 3.81 28 2.92 42.07-1.59 25.14-11.82 50.66-26.39 71.07-7.06 9.88-17.18 18.44-26.36 26.33A75.3 75.3 0 0 1 117.54 257c-24.43 4.92-50.8.64-73.49-9.22a61.6 61.6 0 0 1-28-23.46c-7.25-11.47-9.52-25.61-10.91-38.88-2.89-27.55-2.29-55.31.13-82.87 2.29-26 8-51.67 28.1-69.94a95.77 95.77 0 0 1 33.78-19.47c7.65-2.61 15.61-4.78 23.69-5.38 7.64-.57 15.2.94 22.83.9 15-.08 28.28 2.7 41.65 9.55 4.9 2.51 10.71 7.13 16.25 7.83 3.08.39 6.07-.91 9-1.5a56.54 56.54 0 0 0 10.45-2.8c1.82-.76 1.04-3.62-.75-2.9z"/></svg>