<svg xmlns="http://www.w3.org/2000/svg" viewBox="0 0 16.2 15.34"><title>Hahmot_palat</title><path d="M6.37 13.81a7.54 7.54 0 0 0 5.71-1.31c1-.83 3.1-4.35 2.56-5.74a2.25 2.25 0 0 0-1.44-1.18A15.92 15.92 0 0 1 11.35 5c-1.13-.54-1.82-1.7-2.8-2.47-3.5-2.77-6.79.48-7 4.15-.14 1.88.19 6.32 2.23 6.72a25.4 25.4 0 0 0 2.59.41z"/><path d="M6.37 15.31c4.73.32 8.52-2 9.69-6.78a3.37 3.37 0 0 0-1.81-4.11c-1.3-.67-2.4-.87-3.55-1.9A9.21 9.21 0 0 0 7.75.36C3.32-1.3.15 3.15 0 7.12A11.45 11.45 0 0 0 1.13 13c1.15 2 3.14 2.08 5.25 2.33 1.91.23 1.9-2.78 0-3s-2.62-.24-3.08-2.11a10.82 10.82 0 0 1-.3-3.1c.08-1.35.57-3.12 1.84-3.81 1.78-1 3.12.8 4.27 1.87a7 7 0 0 0 2.45 1.5c1.33.49 1.81.53 1.27 2-1.1 3-3.42 3.83-6.45 3.62-1.93-.13-1.92 2.88-.01 3.01z"/></svg>