<svg xmlns="http://www.w3.org/2000/svg" viewBox="0 0 12.67 14.09"><title>Hahmot_palat</title><path d="M5.93 9.22c-.75-.69-1.47-2-.49-2.87 1.46-1.3 2.71 1.38.89 1 0 0-.13-1-.63-.32-.16.23 0 1-.25 1.25-.94.64-.91-.84-.77-1.38a4.92 4.92 0 0 1 .73-1.44C6 4.58 7.18 3.21 8.39 4c1 .68 1.19 2.28 1.2 3.39 0 2-.91 3.8-3.11 3.65A3.84 3.84 0 0 1 3 7.31c-.13-1.57.26-4.07 2.1-4.23s4.5 0 3.82 2.66A3.41 3.41 0 0 1 7.16 8c-1.64.72-1-1-.6-1.92.8-1.7-1.78-3.23-2.56-1.48s-1.55 4.24.24 5.84c1.57 1.39 4 .78 5.46-.46 3.52-3 3.12-9-1.89-9.8-1.91-.32-4.55-.36-6 1.18a8.67 8.67 0 0 0-1.75 6.5c.5 4.28 4.8 7.47 9 5.75S13.77 4.94 10.62 2C6.69-1.7 1.19 3.81 1.54 8.1a3.75 3.75 0 0 0 4.17 3.5c2-.38 2.89-2.46 3-4.32S7.62 3.21 5.34 4a3.46 3.46 0 0 0-1.75 4.5c2 5 9.83-.3 5.54-4.47a4.21 4.21 0 0 0-6.27.69 4.94 4.94 0 0 0 .95 6.57c1.42 1.3 3.55-.82 2.12-2.12z"/></svg>