<svg xmlns="http://www.w3.org/2000/svg" viewBox="0 0 39.33 20.2"><title>H_</title><path d="M27.7 18.7c-5 .12-8.58-1.31-13.09-2.51-3.61-1-8.45-.23-11.38-3-1.52-1.45-2.12-4-.84-5.69 1-1.35 2.88-1.72 4.55-2 7.41-1.22 14.31-3.35 21.92-3.82C31 1.52 33.35 1.52 35 2.87a7.75 7.75 0 0 1 2.2 3.89c.81 2.68 1.16 5.75-.32 8.12-1.82 2.94-5.72 3.73-9.18 3.82z"/><path d="M27.7 17.2c-5.35-.07-10-2.14-15.24-2.91-1.61-.24-7.56-.24-8.16-2.19l1.78-4.94 1.27-.24c1.17-.65 3.28-.6 4.58-.86C17.7 4.89 23.6 3.2 29.52 3.12a7.13 7.13 0 0 1 6.88 7.81c-.6 4.92-4.37 6-8.7 6.26-1.92.1-1.93 3.1 0 3 8.14-.42 13.64-5.27 10.94-13.83-3.1-9.87-15.53-5.72-23-4.15-4.65 1-20.13 2-14.38 10.87 2.08 3.19 6 3.6 9.44 4 5.79.7 11.09 3 17 3.1a1.5 1.5 0 0 0 0-2.98z"/></svg>