<svg xmlns="http://www.w3.org/2000/svg" viewBox="0 0 131.75 48.33"><defs><style>.a,.b{fill:#fff}.a{stroke:#000;stroke-miterlimit:10}</style></defs><title>H_</title><path d="M13.75 37c5.77 5.42 13.32 5.52 20.5 7.67 6.93 2.08 11.49 3.34 18.62 1.61l65.35-15.84c3.27-.79 6.66-1.65 9.24-3.8 2.07-1.73 3.5-4.65 2.49-7.16-1.34-3.29-5.69-3.84-9.24-3.77-18.85.38-38.3 4.14-56.84-.89C45.86 9.89 27.5 4 8.88 1.52a7.86 7.86 0 0 0-3.62.09C3 2.4 1.93 5 1.65 7.39 1 13.17 3.23 18.85 5.63 24.15 7.73 28.79 10 33.48 13.75 37z"/><path d="M12.68 38c7 6 17.27 7.26 26 9.43 10.25 2.55 20-1.07 30-3.49l36.52-8.85c5.41-1.31 10.92-2.41 16.26-4 3.48-1 7.16-2.6 9.12-5.84 3.48-5.74-1.1-10.31-6.78-11-10.87-1.28-22.52 1.2-33.44 1.5-24.26.73-46.49-9.17-69.94-13.81C12.83.43 1.56-3.49.15 7.39c-.71 5.49 1.33 11 3.48 15.92C6 28.68 8.54 33.82 12.68 38a1.5 1.5 0 0 0 2.12-2.12c-5.9-6-11.27-16.58-11.74-25.05a15.41 15.41 0 0 1 .24-4.24c.6-2.48.89-2 3.87-2.65 3.27-.74 5.56-.38 8.74.19C20.57 5 25.18 6 29.77 7.08c16.67 4 33.19 10.8 50.43 11.67 8.61.43 17.22-.22 25.81-.81 4.28-.29 8.57-.6 12.86-.71a24.68 24.68 0 0 1 5.28.19c.65.12 2.35.32 2.82.87l1 5.49-2.41 2.38c-3.25 2.25-7.81 2.82-11.57 3.73l-14.43 3.5-26.91 6.52c-9.7 2.35-20.92 7-31 5.15-4.22-.78-8.29-2.28-12.48-3.22C24 40.67 19 39.5 14.81 35.9c-1.46-1.25-3.59.86-2.13 2.1z"/><path class="a" d="M65.26 15.84c-6-1.22-11.93-2.85-18.18-4.62A133.67 133.67 0 0 0 24.71 7c-.55 5-.71 10.91 3.37 13.81a14.17 14.17 0 0 0 5.3 2c24.76 5.48 50.67 6.9 74.2-4.18 1.25-.59 2.69-2.06 1.75-3.08-.54-.59-9 1.5-10.19 1.64q-5.51.61-11.07.81a97.06 97.06 0 0 1-22.81-2.16z"/><path class="b" d="M111.08 31.46C91.94 33.79 73.82 40 55.23 44.71c-5 1.28-10.3 2.57-15.36 1.39a49.12 49.12 0 0 1-2.33-9.78A1 1 0 0 1 38.61 35c9.54-.51 19.61-.67 29.3-1.86 12.18-1.5 24.09-4.25 36.19-6.4a10 10 0 0 1 3.5-.2c1.46.28 3.83 4.88 3.48 4.92z"/><path d="M111.08 30c-12.42 1.6-24.52 4.62-36.57 7.95-6 1.64-11.9 3.34-17.88 4.89a65 65 0 0 1-9.93 2.13c-1.67.16-4.58.53-5.91-.82-.72-.74-.86-3.11-1.07-4.05-.91-4.13 1.75-3.7 5.21-3.85 3.06-.13 6.13-.26 9.19-.43 6-.33 12-.85 18-1.71 6.38-.92 12.71-2.13 19-3.36 3.07-.6 18.73-5.47 18.41.74-.1 1.93 2.9 1.92 3 0 .12-2.21-2.52-5.69-4.59-6.36-2.78-.9-7.3.73-10 1.25-4.12.78-8.23 1.6-12.35 2.39a229.93 229.93 0 0 1-26 3.7c-4 .29-8 .48-12 .65-3.28.15-7.23-.24-10.36.75a1.49 1.49 0 0 0-1 1c-.63 3.78 1 8.05 2.16 11.61a1.5 1.5 0 0 0 1 1c10.9 2 22.79-3.13 33.15-6C85.3 38 98 34.64 111.08 33c1.92-.28 1.92-3.29 0-3z"/></svg>