<svg xmlns="http://www.w3.org/2000/svg" viewBox="0 0 154.54 70.58"><defs><style>.a{fill:#fff}</style></defs><title>H_</title><path d="M153.14 1.56C135.39 8.8 115.68 13.64 96.44 14c-7.12.14-14.8-1.83-21.9-2.75C64.55 10 54.82 7.19 45 5 30.58 1.88 15 .15 1.5 6.17c6.09 1.64 12.14 4 17 8 7.35 6.12 11.12 15.38 15.41 23.92 6.78 13.48 19.44 25.44 34.29 29.38 9.07 2.4 18.66 1.64 27.94.3C101.63 67 107.26 65.95 112 63c5.4-3.36 9.06-8.88 12.12-14.46 7.23-13.21 12-26 14-41"/><path d="M152.74.11A175 175 0 0 1 114.14 11a105.23 105.23 0 0 1-20.4 1.5c-7.21-.32-14.48-1.94-21.61-3.05C48.47 5.74 24.34-5.09.74 4.88-.51 5.4 0 7.3 1.1 7.62c10.34 2.89 18.43 7.7 24.13 17 4.36 7.09 7.13 15 11.94 21.85 8.58 12.17 21.52 21.64 36.52 23.6 9.14 1.19 18.8.17 27.8-1.65 7.64-1.55 13.86-4.85 18.72-11C130.95 43.71 137.1 25 139.5 8c.27-1.89-2.62-2.7-2.89-.8-2.32 16.44-8.08 33.93-18 47.41-6.53 8.85-15.8 10.94-26.18 12.19-8.91 1.07-18.06 1.32-26.66-1.61C50.26 59.9 40 47.21 33.06 33 30 26.74 26.82 20.3 21.87 15.25 16.42 9.7 9.26 6.79 1.89 4.73l.36 2.74c12.41-5.24 26.08-4.26 39-1.69 13.12 2.61 26 5.68 39.22 7.93 24.87 4.23 49.9-1.39 73.07-10.7 1.77-.71 1-3.61-.8-2.89z"/><path class="a" d="M112 63c1.29-.57 4.26-3.46 4.44-4.84a62.26 62.26 0 0 0 .28-9 1.65 1.65 0 0 0-1.78-2c-6.6-.67-13.22.59-19.83 1.18a98.87 98.87 0 0 1-45.74-6.83c-1.12-.46-2.58-.87-3.41 0a2.91 2.91 0 0 0-.6 1.63C44 52.46 43.5 53.11 50.47 58.4c8.13 6.17 18.8 10.33 29.17 10.6A78.11 78.11 0 0 0 112 63z"/><path d="M112.73 64.31c5.11-3 5.49-6.88 5.49-12.42 0-1.71.36-4.11-1.09-5.4-2-1.79-7.11-1-9.43-.86-8.45.47-16.7 1.9-25.18 1.57a97.62 97.62 0 0 1-26.89-4.91c-3.84-1.28-10.14-5.35-11.75.53-.95 3.47-1.64 8.59.37 11.81 2.85 4.56 9.22 8 13.83 10.26A52.55 52.55 0 0 0 78 70.43c11.45.75 24.25-1.26 34.73-6.12 1.75-.81.23-3.4-1.51-2.59-8.53 4-18.62 5.59-27.92 5.79a50.24 50.24 0 0 1-23.7-5.22C55.24 60.12 46.58 56 46 50.48c-.23-2.38-.14-7.55 2.89-7.47 1.24 0 3.85 1.48 5 1.88 2 .68 4 1.29 6 1.84a101.11 101.11 0 0 0 21.64 3.42c7.89.38 15.54-.62 23.37-1.32a40.84 40.84 0 0 1 6.31-.31l1.8.05q2.91-.19 2.11 2.4c1.15 3.78-.72 8.83-4 10.74a1.5 1.5 0 0 0 1.61 2.6z"/><path class="a" d="M122.67 10.9c.69 6.56 2.48 15.17-13.81 18-39.41 6.83-60.46-4.62-62.05-5.71-5.16-3.52-12.13-8.48-7-19.2 0 0 16.73 4 34.68 7.28 32.35 5.89 48.13-.37 48.13-.37"/><path d="M121.17 10.9c.33 3 .95 6.38-.19 9.28-2.19 5.56-9.21 6.74-14.41 7.59a122.13 122.13 0 0 1-38.26.57C57 26.57 34 21.09 41.15 4.75l-1.69.69c17.69 4.23 35.84 8.61 54 9.65 9.42.54 20.56.76 29.58-2.74 1.78-.69 1-3.59-.8-2.89-8.8 3.42-19.56 3.16-28.78 2.63-17.92-1-35.82-5.38-53.24-9.54a1.52 1.52 0 0 0-1.69.69C30.31 22 53.64 29 67.52 31.23c14.46 2.28 30.77 2.22 45-1.58 4.39-1.17 8.9-3.29 10.95-7.6 1.67-3.51 1.15-7.44.74-11.16C124 9 121 9 121.17 10.9z"/></svg>