<svg xmlns="http://www.w3.org/2000/svg" viewBox="0 0 99.29 24.74"><defs><style>.a{fill:#fff}</style></defs><title>H_</title><path d="M12 11.51c21.91 4 42.09-4.1 63.5-7.86 3.08-.54 6.52-.93 9.09.85 4.39 3.05 3 11.36-.38 14.7-2.7 2.71-7.6 2.1-11.1 2.2a149.51 149.51 0 0 1-16.7-1c-10.94-.93-22.16-1.95-32.91.89a30.45 30.45 0 0 1-7 1.45C11.38 22.89 5.28 19.2 2.41 15-1.88 8.81 8.7 10.91 12 11.51z"/><path d="M11.59 13c14.62 2.45 28.9 0 43.19-3.26 7.58-1.74 16.05-4.84 23.86-5 6.18-.09 8.24 4.27 6.66 9.45-1.33 4.36-4.64 5.63-9 5.71-15.25.27-30.52-3.27-45.75-1.4-3.76.46-7.23 1.58-10.91 2.33-4.71 1-8.67-.21-12.46-3.11-2.36-1.79-6.5-5.27-1.57-5.53a26.61 26.61 0 0 1 6 .77c1.89.35 2.7-2.54.8-2.89C9.33 9.5 4.8 8.22 1.86 9.76-1.36 11.44.21 14.76 2 17c3.6 4.41 9.57 7.65 15.34 7.22 3.74-.27 7.33-1.77 11-2.39A75.1 75.1 0 0 1 43.55 21c9.25.33 18.44 1.82 27.69 1.88 5.05 0 11.42.78 14.89-3.7 2.61-3.37 3.66-9 1.79-12.92-2.57-5.34-8.75-4.78-13.72-3.9C53.63 6 33.56 13.61 12.39 10.06c-1.89-.31-2.7 2.58-.8 2.94zM94.67 1.87c1.3 5.52 3.77 15.89-1.77 20-1.53 1.14 0 3.74 1.51 2.59 7-5.21 4.88-16.06 3.15-23.38-.44-1.88-3.34-1.08-2.89.8z"/><path class="a" d="M14.31 12.83l1.42 2.95s7.08.13 19.81-1c11.67-1 29.2-5.18 29.2-5.18l1.56-3.53S45.71 11.53 35 12.53a121.73 121.73 0 0 1-20.69.3zM22.27 20.59l-1.74-2.23a119.7 119.7 0 0 1 12.68-1.21c8.58-.48 33.13-.28 33.13-.28L66.23 20s-16.49-1.64-27.83-1.29c-9.86.29-12.96.69-16.13 1.88z"/></svg>