<svg xmlns="http://www.w3.org/2000/svg" viewBox="0 0 97.63 30.96"><title>H_</title><path d="M96 10a3.24 3.24 0 0 1 0 2.22c-.56 1.64-2.31 2.53-4 3-10.28 3.24-21.28-1.53-32.05-1.4-16.68.21-31 12-47.38 15.23-4.08.84-9.8.11-10.57-4.05a7.38 7.38 0 0 1 .52-4C9.74 1.66 38.86 2.81 55.22 1.8c12.05-.74 24.57-.72 35.92 4 2.01.78 4.22 2.31 4.86 4.2z"/><path d="M94.59 10.37c1.59 8.08-27.36 2.33-30.93 2.08-8.41-.58-16.35 1.65-24.07 4.82-7.52 3.09-14.78 6.9-22.61 9.18-4 1.17-13.83 3.89-13.43-3.73.17-3.06 3.35-6.83 5.45-8.83 9.13-8.74 23.93-9.5 35.84-10.1 6.92-.35 13.87-.86 20.8-.85a79 79 0 0 1 15.14 1.3c4.56.9 11.59 2.05 14 6.49.92 1.7 3.51.19 2.59-1.51-3.43-6.29-13.3-7.63-19.62-8.5C69.11-.46 60.49.07 51.82.48c-12.19.52-25.15.64-36.48 5.73-6 2.72-22.71 17-11.62 23.34 5.78 3.29 13.86.07 19.42-2 8.36-3.17 16.24-7.55 24.8-10.14a43.51 43.51 0 0 1 16.62-1.87c5.72.5 11.33 1.9 17.07 2.24 5.31.32 17.46 0 15.85-8.21-.37-1.89-3.26-1.09-2.89.8z"/></svg>