<svg xmlns="http://www.w3.org/2000/svg" viewBox="0 0 356.71 525.64"><defs><style>.a{fill:#777}.b{fill:#d8bb73}.c{fill:#d8d0ba}.d{fill:#fff}.e{stroke:#000;stroke-miterlimit:10}</style></defs><title>H</title><path class="a" d="M355.19 233.15c.65-30-13.4-68.59-37.09-117-14.56-16.25-20.1-18.46-40.04-25.62-50.42-18.14-37.28-18.46-37.35-14.53 0 2.5-5.13.2-7.24 1.55-3.69 2.35-4.36 7.37-4.62 11.74-.88 15-2.82 31.51-1 46.47 1.49 12.53 4.31 25 5.56 37.85l6.37 65.43c2.17 22.28 4.34 44.57 5 66.92a508.26 508.26 0 0 1-22.71 165.88c1.49-4.81 122.14 14.38 132.09 15.6-4.12-.5-9-110.81-8.79-122.33.74-42.19 8.5-71.02 9.82-131.96z"/><path d="M356.69 233.15c.27-17.22-3.74-34.26-9-50.55-7.06-21.88-16.54-43-26.55-63.64-6.91-14.26-22.81-22.57-37-27.81-13.95-5.15-29-9.47-42-16.91-.37-.21-1.65-1.07-1.72-1.06-.62.06-2 2.64-1.61 2.28a1 1 0 0 1 .36.56c-2.75.6-5-1.09-7.68 1.17s-3.49 5.83-3.91 9.07c-.77 5.88-.89 11.92-1.29 17.84-.81 12-1.14 23.91.51 35.86 1.83 13.24 4.31 26.32 5.6 39.64l3.86 39.65c2.56 26.25 5.46 52.51 6.65 78.86a511 511 0 0 1-22.35 173.37c-.49 1.59 2 2.72 2.74 1.16-.25.54-.19.21.59.08a20.12 20.12 0 0 1 3.37-.11c3.19 0 6.39.28 9.57.54 10 .83 19.92 2.06 29.85 3.34 22.7 2.91 45.34 6.26 68 9.63 6.48 1 13 2 19.46 2.85 1.71.21 2-2.5.4-2.95 1 .27.11-.8-.16-2-.47-2.1-.74-4.25-1-6.38-.82-6.4-1.35-12.84-1.86-19.27-1.31-16.6-2.24-33.24-3.06-49.87-.65-13.13-1.31-26.27-1.56-39.41-.33-17 1.52-34 3.34-50.87 3.06-28.33 5.8-56.58 6.46-85.09 0-1.93-3-1.93-3 0-.61 26.59-2.93 53-5.84 79.42-2 18.44-4.27 37.1-4 55.69.49 30.64 2.3 61.41 4.78 91.94.55 6.82 1.12 13.65 2.11 20.42.29 2 .41 7.57 3 8.3l.4-2.95c-39.46-4.91-78.59-12.75-118.27-15.9-2.54-.2-13.56-2.34-15.11 1l2.74 1.16a513 513 0 0 0 22.93-158.65c-.43-27.58-3.3-55-6-82.48-2.62-26.93-4.54-54-9-80.7a182.86 182.86 0 0 1-2.52-40.7c.34-6.21.85-12.41 1.26-18.61.2-3 .14-6.3 1.51-9 2.24-4.48 4.1-2.68 7.52-3.34 5.2-1 2.15-7.44-.62-6.14-4.59 2.19 10.41 8.26 10.98 8.48 8.62 3.74 17.43 7 26.25 10.24 8.44 3.06 17.24 5.8 24.81 10.74a67.35 67.35 0 0 1 11.21 9.56c5.51 5.64 8.4 12.28 11.71 19.35 5.9 12.62 11.48 25.39 16.37 38.44 7.6 20.29 14.12 41.87 13.78 63.74a1.5 1.5 0 0 0 2.99.01z"/><path class="a" d="M282.53 116.15c-2.1-11.17-6.5-34.49-6.65-46.58-17.52-8.33-27.15-8.22-72.58-9.86-36.19-1.3-94.3 3.37-109.24 11.38 17.52 11.91 38.1 18.25 58.34 24.44 4.66 1.42 9.46 2.87 14.31 2.37s9-2.75 13.18-5c16.34-8.7 39.24-9.72 57.47-11.09 12.36-.9 35.2 28.31 45.17 34.34z"/><path d="M284 115.75c-2.86-15.18-6.26-30.69-6.6-46.18a1.49 1.49 0 0 0-.74-1.3c-18.41-8.69-38.29-8.8-58.29-9.53C187.62 57.63 157 58 126.44 62c-10.89 1.44-23.22 2.64-33.13 7.77a1.52 1.52 0 0 0 0 2.59c13.37 8.92 28.3 14.85 43.51 19.83 7.86 2.57 16.06 5.86 24.27 7 7.58 1.06 13.66-2 20.23-5.34 14.11-7.16 30.53-8.62 46.06-9.81 5.82-.45 11.36-1.66 16.71 1.14 4.78 2.5 9 6.13 12.95 9.71 8.14 7.32 15.42 16.63 24.73 22.52 1.64 1 3.14-1.56 1.51-2.59-8.39-5.3-15.05-13.69-22.3-20.38C255 89 247 80.78 238.38 80.33c-6.72-.34-14 .9-20.66 1.58a158.45 158.45 0 0 0-21.42 3.44C189 87.13 182.65 90 176 93.28c-4.68 2.28-9.26 3.64-14.49 2.93-4.69-.64-9.24-2.29-13.75-3.69-18.42-5.69-36.77-12-52.92-22.74v2.59c11.43-5.92 26.41-6.85 38.94-8.25A514.75 514.75 0 0 1 186.93 61c17.75-.14 35.62.57 53.33 1.75 10.34.69 20.51 2 30.15 6 .85.35 3.43 1 4 1.75s.2 3.52.29 4.68c.38 4.7 1 9.38 1.69 14 1.34 9.14 3 18.23 4.72 27.31.33 1.95 3.22 1.15 2.89-.74z"/><path class="b" d="M246.09 85.49c-3.31-2.49-6.79-4.81-9.6-7.84-14.37-15.53-6.17-42.77-19.13-59.5-3.74-4.82-8.91-8.29-14-11.66-4-2.62-8.27-5.35-13-5.13-3.08.15-5.95 1.55-8.6 3.11-20 11.71-32.53 33.6-36.95 56.31s-1.49 46.27 3.89 68.77a321.87 321.87 0 0 0 53.74 115.68c7.66 10.39 16.22 20.56 27.53 26.78s25.94 7.81 36.92 1c8.83-5.46 28.59 26.34 32.26 16.62 19.85-52.37-6.08-168.83-53.06-204.14z"/><path d="M246.84 84.19c-6.7-5-12.27-9.61-15.22-17.62-2.23-6.06-3-12.56-3.82-18.92-1.45-11.44-2.89-23.58-11-32.46-4.58-5-10.83-9.3-16.76-12.55-5.11-2.8-10.17-3.64-15.6-1.25-11.53 5-21.15 15.32-27.87 25.71-16.52 25.57-17.71 57-12.74 86.26 5.22 30.69 15.83 60.7 30 88.39a321.27 321.27 0 0 0 24.28 40c7.95 11.17 16.6 22.49 28.35 29.9 10.73 6.77 24.86 9.82 36.92 4.82 4.67-1.94 6.26-3.53 10.85-.61 3.55 2.25 6.61 5.27 9.68 8.12s9.32 10.5 14.17 8.82c2.46-.85 3-4 3.74-6.17a98.88 98.88 0 0 0 3.18-13.17c3.62-20.2 2.74-41.15 0-61.41a284.17 284.17 0 0 0-17.53-67.64c-7.48-18.72-17.18-37.37-31.34-52a83.73 83.73 0 0 0-9.34-8.27c-1.53-1.17-3 1.43-1.51 2.59 14.7 11.21 25 27.6 32.94 44 9.47 19.49 16 40.43 20.41 61.62 4.16 20.1 6.44 40.79 5.49 61.33a131.69 131.69 0 0 1-3.7 26.68c-.45 1.75-1.56 8.88-3.38 9.56-2.07.78-6.14-3.61-7.41-4.74-5-4.47-9.78-10.07-15.9-13.08a9 9 0 0 0-6.33-1c-2.26.62-4.25 2.28-6.49 3.07a32 32 0 0 1-11.64 1.71c-14.9-.44-27.2-9.63-36.73-20.36s-17.76-23.23-25.23-35.62a320.79 320.79 0 0 1-34.16-79c-8.22-29.38-13.6-61.75-3.9-91.46 4.44-13.58 12-26.35 22.66-35.95 5.68-5.11 14.45-12.49 22.6-10 3.93 1.18 7.48 3.9 10.82 6.19a49.78 49.78 0 0 1 9.87 8.29c9 10.48 8.62 25.49 10.76 38.38 1 5.8 2.39 11.63 5.31 16.78 3.36 5.91 8.66 9.74 14 13.71 1.61 1.1 3.11-1.51 1.57-2.65z"/><path class="c" d="M223 414c-1.72 20.05-4.64 42.67-15.91 56.57 11.12 4.35 44.61 28 79.69 5.6 27.25-63.69 36.07-51.69 41.2-151 2.14-41.42 10.07-85-10.06-127.87-3.64-7.74-15-39.13-35.75-61.8 19.75 41.17 21.53 70.08 17 99.67-4.51-3.92-109.89-86.67-114.78-84-1.3.72 18.56 11.6 18.06 13a7.81 7.81 0 0 0-.13 3.55c2.9 24.25 10.31 47.52 15.13 71.39a511.17 511.17 0 0 1 9.33 73 508.23 508.23 0 0 1-2.07 81.66c-.71 6.08-1.13 12.99-1.71 20.23z"/><path d="M221.46 414c-1.63 18.71-3.47 40.16-15.47 55.51a1.53 1.53 0 0 0 .66 2.51c11.76 4.76 22.25 11.24 34.92 13.78a64 64 0 0 0 24.56.33 57.7 57.7 0 0 0 11.56-3.51c3.7-1.56 8.94-3.27 10.87-6.91 5.7-10.77 10.16-22.34 15.66-33.25 3.84-7.61 7.75-15.19 11-23.09 8.59-21.13 10.79-44.28 12.53-66.81 1.55-20 2.62-40.1 4-60.14s1.94-40.31-1.44-60.21c-2.95-17.32-9.78-33.15-16.89-49.07-7.81-17.49-17.28-34.42-30.17-48.71-1.21-1.34-3 .36-2.36 1.82 8 16.87 14.56 34.58 17.35 53.12a152.9 152.9 0 0 1-.47 45.39l2.51-.66c-11.37-9.77-23.62-18.67-35.49-27.83-18.83-14.53-37.73-29-57.14-42.76-6.09-4.31-12.23-9-18.87-12.4-1.09-.56-2.85-1.72-4.17-1.47-3.31.62-.91 3.3.59 4.41 4.27 3.18 9.05 5.65 13.42 8.69.62.43 2 1.11 2.35 1.79s0 4.26.12 5.07c.66 5.4 1.6 10.77 2.64 16.1 4.41 22.51 10.88 44.54 14.82 67.16a508.53 508.53 0 0 1 7.5 80.69c.35 27-2.26 53.63-4.52 80.46-.16 1.92 2.84 1.91 3 0 1.9-22.59 4.26-45.11 4.53-67.8a511.07 511.07 0 0 0-3.84-68.81A563.29 563.29 0 0 0 213 213.17c-2.66-10.9-5.33-21.82-7.31-32.87q-.66-3.69-1.21-7.39c-.25-1.7-.61-3.47-.69-5.18.36 7.3.18-3.4.13-3.55a4.61 4.61 0 0 0-1.85-2.58c-3.9-3.31-8.71-5.69-13-8.49-.58-.38-5.68-4.23-4.38-.49a13.91 13.91 0 0 1 1.45.55c5.89 2.87 11.3 6.89 16.65 10.63 18.57 13 36.59 26.76 54.55 40.56 13.66 10.46 27.71 20.64 40.75 31.85.75.65 2.33.55 2.51-.66 2.26-15.15 2.84-30.39.68-45.59-2.74-19.31-9.52-37.69-17.86-55.23l-2.36 1.82c11.38 12.61 20 27.38 27.23 42.7 5.87 12.48 11.95 25.47 15.69 38.73 10.78 38.23 4.17 79.28 1.84 118.23-1.48 24.77-2.73 50.61-10.58 74.36-5.57 16.86-14.88 32.31-22.4 48.33q-2.34 5-4.58 10c-.73 1.65-1.3 3.78-2.31 5.28-1.71 2.55-5.47 3.92-8.17 5.13a57.34 57.34 0 0 1-31.42 4.26c-14.26-2-25.88-9.17-38.93-14.45l.66 2.51c12.59-16.09 14.64-38 16.35-57.63.18-1.92-2.82-1.91-2.98 0z"/><path class="d" d="M316.57 185.24a91.4 91.4 0 0 1 5.59-17.35l3.12 5.93a1.77 1.77 0 0 0 1.17 1.11 1.28 1.28 0 0 0 1-.57l6.15-6.84a155.77 155.77 0 0 1 8.28 14.61q-14.09 2.23-27.9 5.39"/><path d="M318 185.64a99 99 0 0 1 5.44-17h-2.59c1.06 2 2.62 7.71 5.58 7.79s6.54-6 8.2-7.84l-2.36-.3q4.49 7.12 8.28 14.61l.9-2.2q-14 2.25-27.9 5.39c-1.88.43-1.09 3.32.8 2.89q13.86-3.14 27.9-5.39a1.52 1.52 0 0 0 .9-2.2q-3.79-7.51-8.28-14.61a1.52 1.52 0 0 0-2.36-.3c-.78.87-5 6.81-6.15 6.84.19 0-2.56-5.48-2.92-6.17a1.51 1.51 0 0 0-2.59 0 103.09 103.09 0 0 0-5.74 17.71c-.43 1.88 2.47 2.68 2.89.8z"/><path class="a" d="M114.36 89.47a88.54 88.54 0 0 0-7.58 2.52c-13 5-24.3 14.38-36.59 21-12.68 6.87-25.53 13.52-37.76 21.17-8.15 5.1-19.12 11.24-23.58 20.25-22.07 44.67 8 63.84 35.56 90.74 22.73 22.19 36.07 47.27 38.38 77.66 2.53 33.38 1.43 31.06-5.7 62.71-6.88 30.6-17.69 60.48-27.71 90.57a1371.33 1371.33 0 0 0 153.94 48.37c5.85 1.47 19.59-39.29 20.95-43.8 4.09-13.64 7.7-26.43 10.55-40.41 4.67-22.87 5.41-46.06 7.71-69.14a502.22 502.22 0 0 0 2.24-65.11c-1.21-39.65-8.87-80.05-20.87-118.23-5.68-18.06-9.25-37.07-18.12-54-3.3-6.28-8.27-10.87-11.78-16.84-4.83-8.21-8.1-16.52-14.32-24-2.55-3.06-5.41-6-9.06-7.6-4.2-1.82-9-1.62-13.54-1.38-14.26.79-28.91 1.59-42.72 5.52z"/><path d="M114 88c-17.12 5-30.71 16.22-46.18 24.61-15.82 8.61-32.16 16.8-46.92 27.2-22.06 15.54-27.33 47.68-12.58 70 7.14 10.77 17 19.49 26.34 28.24 12 11.18 23.3 22.82 31.67 37a111 111 0 0 1 14.89 47c1 12.14 2.3 24.69.27 36.8-6.72 40-20.76 78.53-33.57 116.84a1.53 1.53 0 0 0 1 1.85A1378.32 1378.32 0 0 0 199.18 525c5 1.27 6.77 1.07 9.73-3.31 3.4-5 5.72-10.87 8-16.46a345.74 345.74 0 0 0 13-38.78c7-25.07 10.3-50.17 12.38-76.06 2.16-26.84 4.64-53.44 4-80.41a419.79 419.79 0 0 0-8.51-74.22c-5-24.5-12.48-48.35-19.38-72.35-3.5-12.19-7.33-25.32-14.84-35.73-3.66-5.08-7.51-9.75-10.52-15.29-3.18-5.84-6-11.89-10-17.29-2.84-3.92-6.17-8-10.47-10.32-5.36-2.94-11.61-2.45-17.49-2.15-13.89.72-27.78 1.73-41.24 5.42a1.5 1.5 0 0 0 .8 2.89c12-3.29 24.33-4.41 36.71-5.11 6-.34 12.78-1.41 18.42 1 5.49 2.33 9.53 7.83 12.67 12.69 5.59 8.66 9.51 18 15.86 26.23 7.32 9.44 11.59 20.28 15.13 31.62 14.18 45.46 26.67 91.6 29.31 139.36a493.68 493.68 0 0 1-1.74 74.38c-2.39 24.89-3.41 49.92-8.86 74.39a376.86 376.86 0 0 1-13.2 46c-2.28 6.3-4.67 12.57-7.43 18.67-1.38 3.05-4 11.15-7.49 12.57-1.59.65-6.15-1.25-7.8-1.67q-4.67-1.2-9.32-2.43-10.24-2.71-20.44-5.57-19.45-5.46-38.73-11.49-39.38-12.31-78-27l1 1.85C57 458.1 63.38 439.8 69 421.26c5.24-17.17 9.39-34.58 13.38-52.07a108.4 108.4 0 0 0 3-28.69c-.57-15.05-1.67-30.21-6.37-44.61a120.33 120.33 0 0 0-21-38c-9.44-11.73-21-21.4-31.7-31.88-9-8.81-18.14-18.71-21.85-31.13-4.1-13.75-.64-31.66 7.85-43.2 5.24-7.12 13.5-11.62 20.88-16.18 9.08-5.61 18.42-10.76 27.82-15.82 8.8-4.73 17.33-9.66 25.74-15.06 8.89-5.71 17.81-10.71 28-13.7 1.86-.55 1.08-3.45-.75-2.92z"/><path class="a" d="M182.93 81.35c1.9.15 4 .37 5.36 1.68 1.77 1.67 1.78 4.42 1.75 6.86-.15 12.91.11 33.5 4.64 45.59C161 116.25 124.6 97.73 85.85 96.46c4.16-4.26 3.77-14.82 7-23.64 4.29-.22 15.75 2.64 20.19 3.24 7 .95 14.48.84 21.57 1.41z"/><path d="M182.93 82.85c7.21.72 5.55 8.3 5.58 13.59 0 4.74.14 9.49.44 14.22.52 8.48 1.42 17.16 4.28 25.21l2.2-1.69C161.61 114.9 125.53 96.53 85.85 95l1.06 2.56c5.43-6.38 4.78-16.65 7.39-24.31l-1.45 1.1c5.71-.07 11.47 1.7 17.05 2.72 6.68 1.23 13.47 1.29 20.23 1.64 17.61.91 35.21 2.76 52.79 4.17 1.92.16 1.91-2.85 0-3-17.58-1.42-35.18-3.27-52.79-4.17-7.3-.38-14.52-.56-21.72-2-5.09-1-10.35-2.45-15.57-2.39a1.55 1.55 0 0 0-1.45 1.1 87.67 87.67 0 0 0-2.86 12.08c-.7 3.69-1.22 7.93-3.74 10.89A1.52 1.52 0 0 0 85.85 98c39.14 1.55 74.72 19.81 108.07 38.82a1.52 1.52 0 0 0 2.2-1.69c-3.87-10.88-4.34-22.87-4.56-34.32-.09-4.59.59-9.72-.17-14.25-.81-4.79-3.94-6.21-8.46-6.66-1.93-.24-1.93 2.76 0 2.95z"/><path class="e" d="M329.83 302.57c1 129.58 13.59 177.58 21 183.12-21.56-3.74-29.67-5.82-64.13-9.51 7-14.86 11.76-27 25-52.59 14.7-28.27 12.21-69.31 18.13-121.02z"/><path d="M224.13 194.21c13.21 12.12 27.13 23.31 40.11 35.72 6.65 6.36 13.18 12.84 19.42 19.6q5 5.4 9.7 11.05c1.28 1.54 2.63 4.21 4.91 4.3 5.62.23 7.46-11.25 8.37-14.91a152.9 152.9 0 0 0 3.74-23.54c1.51-17.46.7-35.08-1.27-52.47-.21-1.9-3.22-1.92-3 0a278.16 278.16 0 0 1 1.74 45.59 169.12 169.12 0 0 1-2.7 23.22c-.72 3.73-1.59 7.43-2.66 11.07-.47 1.59-1.06 4.31-2 5.57-2.9 3.79-3.75.53-5.58-1.65-10.43-12.47-22-23.89-33.88-35-11.28-10.6-23.37-20.2-34.76-30.65-1.42-1.3-3.55.81-2.12 2.12z"/></svg>